<svg xmlns="http://www.w3.org/2000/svg" width="1024" height="1024"><path fill="#0C4BDF" d="M484 79v2h2a99 99 0 0 1 4.5 6l1.36 1.931c3.425 4.919 6.624 9.954 9.762 15.058 4.43 7.174 9.06 14.215 13.69 21.261l6.22 9.47c8.167 12.43 16.254 24.903 24.166 37.496a614 614 0 0 0 10.373 15.871c3.741 5.576 7.337 11.24 10.929 16.913 4.383 6.92 8.816 13.796 13.385 20.594 4.495 6.694 8.856 13.472 13.224 20.249q3.441 5.332 6.891 10.657l2.762 4.27q2.688 4.154 5.383 8.304l2.668 4.113 1.342 2.071q3.982 6.157 7.904 12.351l1.856 2.93a2785 2785 0 0 1 3.551 5.624 375 375 0 0 0 3.38 5.242C631 304 631 304 632.455 306.712c3.636 6.256 7.2 8.594 14.157 10.583a388 388 0 0 0 6.262 1.58q2.22.59 4.434 1.193c2.357.639 4.714 1.273 7.075 1.894 6.305 1.657 12.555 3.465 18.8 5.335l2.814.84q5.522 1.65 11.04 3.307 3.848 1.149 7.7 2.283l2.313.699c3.786 1.108 7.027 1.606 10.949 1.574l2 2c2.724.9 5.425 1.708 8.188 2.469l2.54.717c2.755.777 5.514 1.545 8.272 2.314q5.739 1.617 11.477 3.238l2.926.825c10.077 2.843 20.12 5.799 30.16 8.772l4.16 1.232q2.685.794 5.368 1.592c1.608.465 3.22.918 4.845 1.322 2.018.507 4.007 1.074 6.002 1.667l10.287 3.056 2.887.858c14.877 4.415 29.759 8.81 44.673 13.096q2.27.653 4.54 1.31 3.135.905 6.273 1.802l3.547 1.018c2.85.833 2.85.833 5.855.712v2l3.097.385c3.602.568 6.873 1.389 10.352 2.463l3.569 1.084 7.375 2.273 3.556 1.08 3.23.996c2.982.884 2.982.884 6.821.719v2l1.793.516c6.525 2 11.025 4.055 14.52 10.171 2.028 4.447 2.55 8.496 1.687 13.313-4.114 8.571-13.381 14.122-20.809 19.625a643 643 0 0 0-9.441 7.188 1139 1139 0 0 1-14.25 10.812 2374 2374 0 0 0-19 14.375c-10.304 7.86-20.623 15.7-31.078 23.36-8.716 6.386-17.342 12.858-25.85 19.52-6.852 5.36-13.8 10.584-20.776 15.781-2.687 2.003-5.366 4.015-8.046 6.027a5113 5113 0 0 1-8.7 6.515 1321 1321 0 0 0-16.64 12.651c-5.019 3.866-10.088 7.664-15.16 11.458a2680 2680 0 0 0-24.94 18.918 8897 8897 0 0 1-13.435 10.27l-2.658 2.033-2.537 1.936-2.427 1.875C700 605 700 605 698.005 606.156 691.832 609.781 690.3 615.49 688 622q-1.02 2.678-2.043 5.355a2345 2345 0 0 0-2.144 5.832l-1.248 3.387q-1.44 3.914-2.878 7.829-2.358 6.425-4.721 12.846a22853 22853 0 0 0-18.759 51.13c-15.428 42.25-31.11 84.405-46.826 126.549q-3.824 10.259-7.635 20.521c-6.457 17.387-12.936 34.765-19.496 52.114l-.882 2.335A3223 3223 0 0 1 576 924l-1.177 3.084-1.038 2.67-.855 2.21c-3.057 6.695-7.224 11.095-13.93 14.036-6.02 1.704-11.535 1.006-17-2-2.856-3.041-4.882-6.42-7-10a636 636 0 0 0-3.375-4.937c-1.66-2.446-2.68-4.23-3.625-7.063-2.174-4.008-4.48-7.94-6.77-11.882q-1.273-2.192-2.538-4.388-1.996-3.463-4.005-6.918l-1.273-2.213-1.215-2.08-1.067-1.84c-1.237-1.835-2.424-3.268-4.132-4.679h-3l.125-3.25c-.154-4.622-.91-6.534-4.125-9.75-1.26-2.536-2.423-5.106-3.586-7.687-1.562-2.555-2.652-3.279-5.414-4.313l.313-2c-.403-3.868-2.045-6.072-4.22-9.23C486 850 486 850 486 848l-3-1v-3l-1-3-2-1a87 87 0 0 1-2.75-4.875l-1.598-2.988q-1.643-3.119-3.273-6.242l-1.567-2.957-1.417-2.723c-1.352-2.482-1.352-2.482-4.395-4.215v-3c-.947-2.081-.947-2.081-2.266-4.273l-1.449-2.5-1.535-2.602-1.488-2.578c-4.007-7.598-4.007-7.598-10.262-13.047q-.51-2.999-1-6l-2-2-1-3c-1.147-2.522-2.016-4.016-4-6-.95-1.858-1.86-3.738-2.75-5.625-6.225-12.82-13.773-25.007-21.156-37.184l-1.282-2.115a581 581 0 0 0-2.323-3.787C410 718.216 410 718.216 410 716l-2-1a116 116 0 0 1-2.875-5.687c-1.675-3.453-3.301-6.79-5.5-9.938C398 697 398 697 398 695l-3-1v-1h-2l-.27-1.672c-1.137-6.042-3.23-10.586-6.48-15.765l-1.354-2.223a747 747 0 0 0-2.671-4.352c-1.614-2.62-3.167-5.273-4.725-7.926-1.406-2.382-2.536-4.098-4.5-6.062-2-3-2-3-2.375-4.812-1.586-5.551-4.408-8.316-9.3-11.118q-2.808-1.495-5.637-2.945l-2.995-1.581a1093 1093 0 0 0-5.958-3.12 481 481 0 0 1-6.958-3.697c-9.442-5.118-19.043-9.902-28.669-14.663a3352 3352 0 0 1-7.585-3.765 691 691 0 0 1-12.574-6.47l-3.168-1.666a1905 1905 0 0 1-6.24-3.303l-2.877-1.516-2.58-1.37c-2.002-1.115-2.002-1.115-4.084-.974v-2h-4v-2l-1.937-.75c-6.626-2.704-13.003-5.638-19.219-9.184-6.179-3.514-12.388-6.958-18.719-10.191l-3.43-1.758L222 567l-2 1-2-1v-3l-2.095-.795c-3.226-1.338-6.28-2.88-9.382-4.486-.946-.49-.946-.49-1.912-.988l-4.095-2.12a4305 4305 0 0 0-6.507-3.367q-4.608-2.38-9.215-4.764a16172 16172 0 0 0-21.727-11.222q-3.428-1.77-6.855-3.543l-4.228-2.18-1.924-.998c-4.267-2.194-8.511-4.02-13.06-5.537l1-1-1.67-.82c-11.854-5.83-23.574-11.827-35.094-18.294-4.337-2.413-8.421-4.548-13.236-5.886v-2l-1.687-.625c-4.763-2.831-7.345-6.504-8.813-11.75-1.074-6.021.866-10.237 4.227-15.148 2.659-2.897 4.973-4.157 8.523-5.852l2.025-.977c2.568-1.231 5.146-2.44 7.725-3.648l5.379-2.543c21.357-10.096 42.837-19.922 64.344-29.695l14.829-6.74 9.115-4.142q5.878-2.67 11.752-5.347 2.226-1.013 4.453-2.025c7.405-3.36 14.785-6.768 22.085-10.352l3.456-1.693c2.69-1.203 2.69-1.203 3.587-3.463l3.058-.406c4.514-.68 7.93-2.148 12.016-4.094l2.296-1.066c2.443-1.136 4.88-2.285 7.317-3.434q2.524-1.177 5.05-2.351 4.936-2.295 9.867-4.601c5.217-2.435 10.455-4.82 15.709-7.173l2.315-1.04c4.222-1.892 8.46-3.743 12.708-5.578 5.554-2.402 11.016-4.889 16.414-7.632 5.93-3.014 11.939-5.82 18-8.562l2.675-1.219 2.497-1.121 2.237-1.008C353 342 353 342 355 342l1-2 2-1c1.112-2.274 1.112-2.274 2.137-5.082l1.252-3.272 1.298-3.459c.41-1.067.82-2.135 1.24-3.236 2.92-7.684 5.654-15.425 8.355-23.188 3.187-9.143 6.507-18.236 9.843-27.325l1.973-5.386a7030 7030 0 0 1 13.132-35.49c4.508-12.102 8.931-24.234 13.332-36.375 8.224-22.678 16.587-45.304 24.999-67.913 2.119-5.7 4.223-11.405 6.3-17.12q1.633-4.481 3.28-8.958.718-1.964 1.423-3.933C452.875 80.64 452.875 80.64 460.125 76c9.029-3.14 15.63-1.647 23.875 3m22 317a141 141 0 0 0-5.437 6.188l-1.626 1.928a1499 1499 0 0 0-3.332 3.969 757 757 0 0 1-4.351 5.142c-5.734 6.725-11.363 13.533-16.961 20.372a566 566 0 0 1-13.738 16.112c-2.698 2.74-2.698 2.74-3.555 6.289h-2c-1.417 1.549-2.758 3.168-4.062 4.813l-2.438 3.042-1.258 1.584c-5.341 6.712-10.786 13.29-16.613 19.588-1.58 1.915-2.623 3.713-3.629 5.973 6.663 5.682 13.34 11.33 20.203 16.77 3.642 2.904 7.25 5.85 10.86 8.793 4.898 3.99 9.823 7.932 14.828 11.789 3.882 3.034 7.671 6.183 11.478 9.31a3278 3278 0 0 0 9.443 7.713l2.058 1.675c5.052 4.102 10.166 8.12 15.306 12.113 4.227 3.306 8.236 6.8 12.152 10.474 1.57 1.574 1.57 1.574 3.672 1.363a147 147 0 0 0 5.125-6.437c3.812-4.962 7.718-9.737 11.926-14.372 2.957-3.325 5.734-6.792 8.539-10.246 3.94-4.814 7.975-9.547 12.003-14.288q3.457-4.075 6.907-8.157 4.154-4.915 8.32-9.82a1060 1060 0 0 0 15.098-18.164c2.537-3.066 5.178-6.025 7.867-8.957 1.42-1.493 1.42-1.493 1.215-3.559l2-2-1-2c-2.527-.656-2.527-.656-5-1l2-1a449 449 0 0 0-23.473-19.01c-7.076-5.369-13.953-10.968-20.823-16.597-3.873-3.166-7.793-6.274-11.704-9.393a15687 15687 0 0 1-9.469-7.574 3142 3142 0 0 1-8.258-6.621Q521.178 406.099 514 400.5l-1.711-1.352c-2.814-2.404-2.814-2.404-6.289-3.148M393 688l1 2Z"/><path fill="#229EFE" d="M471 101h2c1.523 2.176 1.523 2.176 3.375 5.313q1.084 1.81 2.172 3.617l1.193 1.99c2.245 3.705 4.567 7.36 6.885 11.017l1.527 2.413a9933 9933 0 0 0 6.578 10.378c8.689 13.695 17.432 27.353 26.313 40.924a1416 1416 0 0 1 17.332 27.16c5.62 9.04 11.368 17.984 17.204 26.886 5.413 8.264 10.704 16.602 15.956 24.97q3.819 6.077 7.653 12.144l1.528 2.422a2099 2099 0 0 0 10.827 16.938c2.475 3.844 4.917 7.71 7.357 11.576a648 648 0 0 0 3.62 5.635c3.59 5.533 6.91 11.094 9.918 16.966 5.799 9.36 10.275 13.971 21.062 16.83l3.333.973c3.38.98 6.773 1.915 10.167 2.848q2.938.847 5.874 1.707c4.88 1.42 9.77 2.8 14.664 4.165 5.667 1.58 11.33 3.176 16.993 4.769a6423.8 6423.8 0 0 1 33.563 9.531l4.672 1.338a26641 26641 0 0 1 18.38 5.27 14092 14092 0 0 0 14.957 4.287c9.094 2.601 18.21 5.106 27.354 7.527 9.657 2.56 19.202 5.403 28.738 8.38 12.14 3.782 24.375 7.218 36.617 10.651l16.707 4.703c10.169 2.86 20.326 5.76 30.481 8.672v2c-45.929 10.067-45.929 10.067-61.406 13.094-10.51 2.063-20.988 4.27-31.469 6.469l-2.75.576-5.355 1.124q-2.629.552-5.259 1.1a815 815 0 0 0-12.957 2.804c-13.396 3.002-22.531 3.89-35.616-1.104l-3.607-1.333a1391 1391 0 0 1-10.287-3.862q-3.591-1.358-7.187-2.704a7967 7967 0 0 1-33.897-12.805 14222 14222 0 0 0-15.95-6.048c-47.38-17.94-47.38-17.94-62.905-24.194-3.201-1.289-6.394-2.489-9.68-3.547-10.154-3.535-15.155-10.246-21.294-18.684-1.759-2.402-3.623-4.707-5.506-7.011-4.516-5.662-8.983-11.362-13.452-17.06a11902 11902 0 0 0-8.302-10.568q-3.407-4.333-6.8-8.677a1259 1259 0 0 0-16.476-20.598 837 837 0 0 1-10.595-13.284c-8.19-10.726-8.19-10.726-17.25-20.688l-1.063 2.006c-6.404 12.058-12.872 24.047-19.812 35.807a1034 1034 0 0 0-15.187 26.687l-1.022 1.856a2399 2399 0 0 0-12 22.1 1685 1685 0 0 1-6.335 11.653q-1.614 2.952-3.209 5.914C432.965 385.856 427.842 395.104 416 402q-2.126 1.354-4.238 2.727a740 740 0 0 1-12.215 7.695q-3.75 2.327-7.488 4.672c-11.951 7.469-24.048 14.676-36.184 21.84-9.777 5.771-19.504 11.627-29.234 17.478l-6.832 4.104-1.86 1.115-5.168 3.096c-3.028 1.816-6.046 3.649-9.062 5.484l-2.774 1.68a1587 1587 0 0 0-5.423 3.301l-2.479 1.5-2.218 1.35C289 479 289 479 287 479v2c4.615 1.042 4.615 1.042 9 0v2l2.125.375c2.875.625 2.875.625 5.398 1.602 4.648 1.368 9.156 1.685 13.977 2.023l3.281.246c7.933.556 15.868.928 23.813 1.254l3.08.127q7.703.316 15.406.588l5.795.223 2.643.082c9.07.363 17.012 1.08 23.982 7.23q1.8 1.498 3.602 2.992l1.903 1.605c3.547 2.94 7.218 5.72 10.87 8.528a950 950 0 0 1 19.365 15.439 875 875 0 0 0 14.542 11.593c4.902 3.835 9.76 7.72 14.615 11.615 4.159 3.333 8.342 6.633 12.54 9.915 5.76 4.506 11.437 9.104 17.102 13.727 4.84 3.942 9.73 7.814 14.65 11.654 5.385 4.215 10.69 8.527 15.983 12.856l1.93 1.576c.89.73.89.73 1.797 1.477 1.289 1.025 2.636 1.975 4 2.898 2.553 2.193 2.534 4.753 2.884 8.01l.226 3.043.264 3.485.278 3.786.454 6q.24 3.184.48 6.37c.546 7.293 1.108 14.585 1.675 21.876l.17 2.194a1852 1852 0 0 0 3.42 38.673l.25 2.539c.71 7.153 1.446 14.288 2.5 21.399 5.681-10.577 11.162-21.211 16.248-32.089 3.426-7.313 7.041-14.527 10.665-21.743 1.826-3.642 3.64-7.29 5.454-10.938 7.333-14.722 14.672-29.43 22.422-43.94a812 812 0 0 0 4.09-7.864c7.45-14.45 14.944-28.979 24.121-42.426l5 3c-1.788 4.799-4.097 9.303-6.402 13.867l-2.683 5.34-1.413 2.807C610.494 601.93 602.56 617.867 595 634l-1.085 2.315c-.35.75-.702 1.499-1.063 2.27l-2.04 4.352-.968 2.07c-2.524 5.37-5.17 10.674-7.843 15.973-3.487 6.94-6.783 13.965-10.062 21.004q-1.302 2.791-2.61 5.578-2.152 4.592-4.285 9.19-1.143 2.46-2.291 4.917c-5.443 11.658-10.74 23.311-15.292 35.351-2.256 5.878-2.256 5.878-4.461 6.98-.017-.776-.034-1.552-.05-2.352-.797-9.955-5.03-15.494-11.305-22.719-2.919-3.423-5.646-6.995-8.395-10.554l-1.768-2.271c-5.108-6.574-10.096-13.236-15.076-19.907-4.95-6.62-10.027-13.13-15.156-19.613-6.83-8.654-13.413-17.478-19.937-26.364A1603 1603 0 0 0 460 625a1702 1702 0 0 1-11.212-15.07 2799 2799 0 0 0-3.568-4.84 861 861 0 0 1-8.423-11.57C431.226 585.775 425.94 579.452 418 574q-1.957-1.392-3.91-2.79a1142 1142 0 0 0-8.793-6.202 973 973 0 0 1-9.508-6.727 4907 4907 0 0 0-6.885-4.92l-3.706-2.653c-12.231-8.768-24.736-17.086-37.323-25.333l-8.584-5.638-5.555-3.647a2039 2039 0 0 1-16.033-10.637c-5.204-3.483-10.46-6.854-15.828-10.078l-4.543-2.75-2.205-1.332a633 633 0 0 1-6.053-3.73l-1.81-1.127a3440 3440 0 0 1-4.76-2.975c-3.647-2.128-6.503-2.61-10.651-2.76l-3.27-.12-3.622-.112-3.854-.126c-16.596-.514-33.201-.632-49.804-.789a18846 18846 0 0 1-31.677-.331c-21.88-.24-43.753-.657-65.626-1.223 3.77-3.291 7.641-5.407 12.203-7.363l2.128-.935q2.27-.997 4.544-1.984c3.24-1.406 6.474-2.83 9.708-4.253l5.015-2.204c8.163-3.585 16.288-7.252 24.402-10.949l2.065-.94c10.42-4.744 20.811-9.55 31.19-14.384 13.188-6.138 26.425-12.17 39.658-18.209q9.047-4.13 18.087-8.279 14.465-6.633 28.938-13.25l2.25-1.03a7862 7862 0 0 1 24.335-11.087c13.102-5.938 26.195-11.893 39.238-17.958q1.965-.915 3.931-1.825 2.71-1.258 5.417-2.522l3.093-1.44L373 358l2.693-1.268c3.149-2.364 3.805-4.58 5.112-8.275.36-.996.36-.996.73-2.012.795-2.205 1.567-4.419 2.34-6.632q.837-2.338 1.68-4.673 1.335-3.693 2.656-7.39c2.185-6.111 4.435-12.194 6.726-18.266.33-.871.658-1.743.997-2.641q1.933-5.118 3.87-10.234c3.65-9.66 7.186-19.35 10.575-29.105 3.136-9.014 6.4-17.98 9.683-26.942l.961-2.625c5.84-15.95 11.816-31.847 17.856-47.722L442 182l.75-1.975c3.862-10.193 7.57-20.437 11.23-30.704 8.965-25.14 8.965-25.14 13.799-37.396 1.414-3.618 2.635-7.075 3.221-10.925"/><path fill="#062384" d="M484 79v2h2a99 99 0 0 1 4.5 6l1.36 1.931c3.425 4.919 6.624 9.954 9.762 15.058 4.43 7.174 9.06 14.215 13.69 21.261l6.22 9.47c8.167 12.43 16.254 24.903 24.166 37.496a614 614 0 0 0 10.373 15.871c3.741 5.576 7.337 11.24 10.929 16.913 4.383 6.92 8.816 13.796 13.385 20.594 4.495 6.694 8.856 13.472 13.224 20.249q3.441 5.332 6.891 10.657l2.762 4.27q2.688 4.154 5.383 8.304l2.668 4.113 1.342 2.071q3.982 6.157 7.904 12.351l1.856 2.93a2785 2785 0 0 1 3.551 5.624 375 375 0 0 0 3.38 5.242C631 304 631 304 632.455 306.712c3.636 6.256 7.2 8.594 14.157 10.583a388 388 0 0 0 6.262 1.58q2.22.59 4.434 1.193c2.357.639 4.714 1.273 7.075 1.894 6.305 1.657 12.555 3.465 18.8 5.335l2.814.84q5.522 1.65 11.04 3.307 3.848 1.149 7.7 2.283l2.313.699c3.786 1.108 7.027 1.606 10.949 1.574l2 2c2.724.9 5.425 1.708 8.188 2.469l2.54.717c2.755.777 5.514 1.545 8.272 2.314q5.739 1.617 11.477 3.238l2.926.825c10.077 2.843 20.12 5.799 30.16 8.772l4.16 1.232q2.685.794 5.368 1.592c1.608.465 3.22.918 4.845 1.322 2.018.507 4.007 1.074 6.002 1.667l10.287 3.056 2.887.858c14.877 4.415 29.759 8.81 44.673 13.096q2.27.653 4.54 1.31 3.135.905 6.273 1.802l3.547 1.018c2.85.833 2.85.833 5.855.712v2l3.097.385c3.602.568 6.873 1.389 10.352 2.463l3.569 1.084 7.375 2.273 3.556 1.08 3.23.996c2.982.884 2.982.884 6.821.719v2l1.793.516c6.525 2 11.025 4.055 14.52 10.171 2.028 4.447 2.55 8.496 1.687 13.313-4.114 8.571-13.381 14.122-20.809 19.625a643 643 0 0 0-9.441 7.188 1139 1139 0 0 1-14.25 10.812 2374 2374 0 0 0-19 14.375c-10.304 7.86-20.623 15.7-31.078 23.36-8.716 6.386-17.342 12.858-25.85 19.52-6.852 5.36-13.8 10.584-20.776 15.781-2.687 2.003-5.366 4.015-8.046 6.027a5113 5113 0 0 1-8.7 6.515 1321 1321 0 0 0-16.64 12.651c-5.019 3.866-10.088 7.664-15.16 11.458a2680 2680 0 0 0-24.94 18.918 8897 8897 0 0 1-13.435 10.27l-2.658 2.033-2.537 1.936-2.427 1.875C700 605 700 605 698.005 606.156 691.832 609.781 690.3 615.49 688 622q-1.02 2.678-2.043 5.355a2345 2345 0 0 0-2.144 5.832l-1.248 3.387q-1.44 3.914-2.878 7.829-2.358 6.425-4.721 12.846a22853 22853 0 0 0-18.759 51.13c-15.428 42.25-31.11 84.405-46.826 126.549q-3.824 10.259-7.635 20.521c-6.457 17.387-12.936 34.765-19.496 52.114l-.882 2.335A3223 3223 0 0 1 576 924l-1.177 3.084-1.038 2.67-.855 2.21c-3.057 6.695-7.224 11.095-13.93 14.036-6.02 1.704-11.535 1.006-17-2-2.856-3.041-4.882-6.42-7-10a636 636 0 0 0-3.375-4.937c-1.66-2.446-2.68-4.23-3.625-7.063-2.174-4.008-4.48-7.94-6.77-11.882q-1.273-2.192-2.538-4.388-1.996-3.463-4.005-6.918l-1.273-2.213-1.215-2.08-1.067-1.84c-1.237-1.835-2.424-3.268-4.132-4.679h-3l.125-3.25c-.154-4.622-.91-6.534-4.125-9.75-1.26-2.536-2.423-5.106-3.586-7.687-1.562-2.555-2.652-3.279-5.414-4.313l.313-2c-.403-3.868-2.045-6.072-4.22-9.23C486 850 486 850 486 848l-3-1v-3l-1-3-2-1a87 87 0 0 1-2.75-4.875l-1.598-2.988q-1.643-3.119-3.273-6.242l-1.567-2.957-1.417-2.723c-1.352-2.482-1.352-2.482-4.395-4.215v-3c-.947-2.081-.947-2.081-2.266-4.273l-1.449-2.5-1.535-2.602-1.488-2.578c-4.007-7.598-4.007-7.598-10.262-13.047q-.51-2.999-1-6l-2-2-1-3c-1.147-2.522-2.016-4.016-4-6-.95-1.858-1.86-3.738-2.75-5.625-6.225-12.82-13.773-25.007-21.156-37.184l-1.282-2.115a581 581 0 0 0-2.323-3.787C410 718.216 410 718.216 410 716l-2-1a116 116 0 0 1-2.875-5.687c-1.675-3.453-3.301-6.79-5.5-9.938C398 697 398 697 398 695l-3-1v-1h-2l-.27-1.672c-1.137-6.042-3.23-10.586-6.48-15.765l-1.354-2.223a747 747 0 0 0-2.671-4.352c-1.614-2.62-3.167-5.273-4.725-7.926-1.406-2.382-2.536-4.098-4.5-6.062-2-3-2-3-2.375-4.812-1.586-5.551-4.408-8.316-9.3-11.118q-2.808-1.495-5.637-2.945l-2.995-1.581a1093 1093 0 0 0-5.958-3.12 481 481 0 0 1-6.958-3.697c-9.442-5.118-19.043-9.902-28.669-14.663a3352 3352 0 0 1-7.585-3.765 691 691 0 0 1-12.574-6.47l-3.168-1.666a1905 1905 0 0 1-6.24-3.303l-2.877-1.516-2.58-1.37c-2.002-1.115-2.002-1.115-4.084-.974v-2h-4v-2l-1.937-.75c-6.626-2.704-13.003-5.638-19.219-9.184-6.179-3.514-12.388-6.958-18.719-10.191l-3.43-1.758L222 567l-2 1-2-1v-3l-2.095-.795c-3.226-1.338-6.28-2.88-9.382-4.486-.946-.49-.946-.49-1.912-.988l-4.095-2.12a4305 4305 0 0 0-6.507-3.367q-4.608-2.38-9.215-4.764a16172 16172 0 0 0-21.727-11.222q-3.428-1.77-6.855-3.543l-4.228-2.18-1.924-.998c-4.267-2.194-8.511-4.02-13.06-5.537l1-1-1.67-.82c-11.854-5.83-23.574-11.827-35.094-18.294-4.337-2.413-8.421-4.548-13.236-5.886v-2l-1.687-.625c-4.763-2.831-7.345-6.504-8.813-11.75-1.074-6.021.866-10.237 4.227-15.148 2.659-2.897 4.973-4.157 8.523-5.852l2.025-.977c2.568-1.231 5.146-2.44 7.725-3.648l5.379-2.543c21.357-10.096 42.837-19.922 64.344-29.695l14.829-6.74 9.115-4.142q5.878-2.67 11.752-5.347 2.226-1.013 4.453-2.025c7.405-3.36 14.785-6.768 22.085-10.352l3.456-1.693c2.69-1.203 2.69-1.203 3.587-3.463l3.058-.406c4.514-.68 7.93-2.148 12.016-4.094l2.296-1.066c2.443-1.136 4.88-2.285 7.317-3.434q2.524-1.177 5.05-2.351 4.936-2.295 9.867-4.601c5.217-2.435 10.455-4.82 15.709-7.173l2.315-1.04c4.222-1.892 8.46-3.743 12.708-5.578 5.554-2.402 11.016-4.889 16.414-7.632 5.93-3.014 11.939-5.82 18-8.562l2.675-1.219 2.497-1.121 2.237-1.008C353 342 353 342 355 342l1-2 2-1c1.112-2.274 1.112-2.274 2.137-5.082l1.252-3.272 1.298-3.459c.41-1.067.82-2.135 1.24-3.236 2.92-7.684 5.654-15.425 8.355-23.188 3.187-9.143 6.507-18.236 9.843-27.325l1.973-5.386a7030 7030 0 0 1 13.132-35.49c4.508-12.102 8.931-24.234 13.332-36.375 8.224-22.678 16.587-45.304 24.999-67.913 2.119-5.7 4.223-11.405 6.3-17.12q1.633-4.481 3.28-8.958.718-1.964 1.423-3.933C452.875 80.64 452.875 80.64 460.125 76c9.029-3.14 15.63-1.647 23.875 3m-13 22-.719 2.417a356 356 0 0 1-7.719 22.708l-2.656 7.113-1.422 3.796c-2.376 6.345-4.734 12.697-7.093 19.049l-1.662 4.473c-6.505 17.502-12.93 35.033-19.33 52.573-4.019 10.999-8.058 21.988-12.18 32.95l-.994 2.643q-2.412 6.413-4.835 12.822c-2.985 7.91-5.902 15.837-8.675 23.823-3.991 11.493-8.119 22.936-12.296 34.362a2256 2256 0 0 0-3.53 9.715c-1.37 3.804-2.76 7.602-4.15 11.4l-1.264 3.525-1.204 3.262-1.04 2.859c-2.234 4.556-5.434 6.87-9.93 8.998l-2.861 1.366-3.127 1.459-3.323 1.57c-12.408 5.84-24.906 11.485-37.401 17.132a3510 3510 0 0 0-15.913 7.25l-2.348 1.076a11295 11295 0 0 0-9.05 4.15c-7.429 3.412-14.87 6.784-22.368 10.04-7.011 3.047-13.94 6.25-20.857 9.506-3.828 1.795-7.665 3.57-11.502 5.346l-2.49 1.153-10.48 4.854c-13.044 6.038-13.044 6.038-26.073 12.106-13.561 6.333-27.174 12.545-40.82 18.692l-2.613 1.177c-11.112 5.002-22.237 9.97-33.492 14.644-4.406 1.866-7.993 3.73-11.583 6.991l11 1h-16v2l2.36 1.218 12.969 6.698a2292 2292 0 0 1 23.234 12.147c8.845 4.69 17.805 9.152 26.779 13.59a849 849 0 0 1 19.638 10.074 1473 1473 0 0 0 20.946 10.859l2.822 1.436a9266 9266 0 0 0 11.41 5.795c11.45 5.807 22.805 11.746 34.056 17.927a826 826 0 0 0 21.604 11.425c3.311 1.693 6.617 3.396 9.924 5.097l1.946 1c8.137 4.182 16.228 8.45 24.312 12.734l3.73 1.977 2.047 1.084 8.726 4.623 6.703 3.555c6.58 3.488 13.164 6.964 19.782 10.378l3.148 1.626q2.808 1.446 5.623 2.878A287 287 0 0 1 378 621l2.334 1.21c7.25 4.181 10.632 10.387 14.603 17.54a1481 1481 0 0 0 2.112 3.68A941 941 0 0 1 403 654l1.442 2.584c1.572 2.824 3.14 5.651 4.69 8.487 3.795 6.905 7.833 13.663 11.868 20.429 4.89 8.201 9.697 16.433 14.287 24.807 3.344 6.083 6.828 12.08 10.338 18.068a2765 2765 0 0 1 15.438 26.688l1.021 1.789c4.54 7.951 9.047 15.92 13.541 23.898 4.963 8.81 10.036 17.55 15.147 26.275 4.497 7.688 8.896 15.427 13.263 23.19 4.728 8.393 9.543 16.735 14.368 25.073a2425 2425 0 0 1 14.015 24.628 825 825 0 0 0 11.337 19.508c2.64 4.428 4.982 8.943 7.245 13.576l3-1a78 78 0 0 0 2.977-7.266l.854-2.312c.942-2.554 1.868-5.113 2.794-7.672l2-5.434q1.579-4.275 3.15-8.553c3.43-9.354 6.951-18.672 10.485-27.987a12189 12189 0 0 0 6.437-17.023c23.98-63.504 47.807-127.083 70.613-191.019 2.824-7.914 5.66-15.823 8.498-23.732q1.377-3.84 2.752-7.684l1.674-4.67.762-2.13c.661-1.842 1.332-3.68 2.004-5.518l1.041-2.92c1.358-2.945 2.942-2.948 5.959-4.08 2.88-1.985 5.584-4.19 8.313-6.375q2.43-1.92 4.863-3.836l2.46-1.94c3.415-2.67 6.884-5.264 10.364-7.849 5.664-4.217 11.253-8.52 16.813-12.875 6.932-5.426 13.974-10.68 21.08-15.875A620 620 0 0 0 756 533c6.862-5.384 13.835-10.591 20.877-15.737 6.397-4.69 12.662-9.534 18.905-14.426a444 444 0 0 1 14.62-10.946c3.405-2.478 6.735-5.048 10.067-7.623a2818 2818 0 0 1 36.44-27.694c6.39-4.782 12.728-9.636 19.068-14.487a939 939 0 0 1 20.895-15.483l2.222-1.616 1.927-1.39c2.51-2.028 4.727-4.29 6.979-6.598-19.522-6.133-39.152-11.826-58.836-17.413q-9.099-2.584-18.194-5.176l-4.455-1.267c-8.89-2.53-17.771-5.084-26.64-7.687-13.39-3.927-26.828-7.68-40.263-11.448a11762 11762 0 0 1-82.723-23.503c-12.961-3.723-25.914-7.474-38.827-11.361l-2.798-.835c-14.34-4.357-14.34-4.357-16.791-8.443l-1.187-1.906-1.223-2.086-2.825-4.578-1.544-2.541c-3.234-5.261-6.603-10.437-9.944-15.631-6.3-9.84-12.591-19.687-18.818-29.575-9.742-15.467-19.55-30.895-29.584-46.174-6.764-10.3-13.29-20.723-19.715-31.238-3.848-6.284-7.773-12.488-11.91-18.586-4.294-6.344-8.375-12.822-12.477-19.292a1800 1800 0 0 0-10.871-16.947 1770 1770 0 0 1-11.562-18.063l-1.522-2.404a560 560 0 0 1-6.756-10.936l-1.118-1.858a885 885 0 0 1-2.894-4.876L473 101zm-78 587 1 2Z"/><path fill="#0B42D1" d="m145.918 477.91 3.322.012a3199 3199 0 0 1 14.077.097c11.74.095 23.481.219 35.222.353q5.766.066 11.531.125c10.154.105 20.308.227 30.461.393q7.075.114 14.152.145c3.266.02 6.532.075 9.797.125l3.379-.014c10.957.24 19.499 5.36 28.266 11.541 5.23 3.608 10.56 6.974 16.012 10.235 10.764 6.514 21.149 13.567 31.55 20.64q4.174 2.83 8.35 5.658l5.406 3.666q7.89 5.35 15.834 10.618a402 402 0 0 1 15.598 10.871c5.964 4.345 11.96 8.637 18 12.875q4.066 2.87 8.125 5.75l1.791 1.266c1.62 1.15 3.227 2.317 4.834 3.484l2.664 1.922c6.244 5.362 11.047 11.951 15.774 18.64l3.41 4.766 1.758 2.46c7.84 10.913 15.885 21.67 24.079 32.32a684 684 0 0 1 10.377 13.892c6.047 8.295 12.314 16.409 18.63 24.5 6.12 7.844 12.187 15.717 18.132 23.695 4.985 6.67 10.1 13.238 15.227 19.801l1.635 2.129a90 90 0 0 0 3.593 4.239c5.142 5.91 6.454 11.137 7.096 18.886l.895-2.202c9.386-23.027 18.936-46.044 30.28-68.189 2.04-3.991 3.933-8.047 5.825-12.109 3.518-7.538 7.203-14.982 10.946-22.41a1928 1928 0 0 0 15.87-32.206C614.281 592.447 620.943 579.14 628 566c4.04.86 6.838 2.775 10.125 5.188l1.81 1.31c10.266 7.5 20.347 15.306 30.065 23.502-.751 4.627-2.286 8.931-3.86 13.328l-.898 2.534q-1.49 4.196-2.992 8.388l-1.05 2.949c-7.059 19.797-14.323 39.518-21.611 59.232-4.915 13.297-9.797 26.603-14.589 39.944-6.204 17.257-12.577 34.449-19 51.625l-1.66 4.442a20903 20903 0 0 1-18.914 50.359l-.737 1.956a22247 22247 0 0 1-11.177 29.614l-.723 1.914q-4.68 12.39-9.27 24.813-1.44 3.881-2.884 7.763a946 946 0 0 0-1.741 4.741 863 863 0 0 1-2.347 6.351l-1.286 3.505L554 912l-3 1-.96-1.773A3074 3074 0 0 0 545 902l-1.04-1.9c-5.784-10.553-11.773-20.973-17.856-31.355a999 999 0 0 1-10.634-18.594c-3.387-6.056-6.899-12.039-10.408-18.026-4.514-7.707-8.943-15.45-13.245-23.277-3.398-6.157-6.942-12.223-10.505-18.285A1121 1121 0 0 1 466.5 764.5c-6.4-11.593-13.02-23.043-19.723-34.462-3.095-5.291-6.155-10.602-9.214-15.913l-1.88-3.263-3.779-6.558q-2.88-4.995-5.763-9.988a6025 6025 0 0 1-17.204-29.941A4289 4289 0 0 0 395.5 641l-1.781-3.096c-5.227-8.995-9.12-13.531-18.469-18.154a4489 4489 0 0 1-6.219-3.164l-3.406-1.728c-5.971-3.046-11.878-6.217-17.792-9.372q-5.171-2.756-10.345-5.506l-1.991-1.059c-11.887-6.32-23.811-12.568-35.747-18.796l-2.922-1.525q-7.31-3.813-14.629-7.608c-9.519-4.94-18.99-9.946-28.387-15.117-7.632-4.198-15.324-8.227-23.15-12.051-5.519-2.708-10.959-5.55-16.392-8.422-9.772-5.163-19.604-10.201-29.453-15.216q-6.094-3.106-12.187-6.214l-9.412-4.8q-13.274-6.77-26.54-13.553-2.654-1.358-5.312-2.713-3.684-1.882-7.366-3.765l-2.156-1.099A280 280 0 0 1 109 481v-2l3.148.035 4.227.027 2.059.026c3.764.017 7.423-.151 11.163-.588 5.456-.56 10.84-.627 16.321-.59"/><path fill="#38C1FE" d="M471 101h2c1.523 2.176 1.523 2.176 3.375 5.313q1.084 1.81 2.172 3.617l1.193 1.99c2.245 3.705 4.567 7.36 6.885 11.017l1.527 2.413q2.421 3.826 4.848 7.65l1.73 2.728c8.689 13.695 17.432 27.353 26.313 40.924a1416 1416 0 0 1 17.332 27.16c5.62 9.04 11.368 17.984 17.204 26.886 5.413 8.264 10.704 16.602 15.956 24.97q3.819 6.077 7.653 12.144l1.528 2.422a2099 2099 0 0 0 10.827 16.938c2.475 3.844 4.917 7.71 7.357 11.576a648 648 0 0 0 3.62 5.635c3.59 5.533 6.91 11.094 9.918 16.966 5.799 9.36 10.275 13.971 21.062 16.83l3.333.973c3.38.98 6.773 1.915 10.167 2.848q2.938.847 5.874 1.707c4.88 1.42 9.77 2.8 14.664 4.165 5.667 1.58 11.33 3.176 16.993 4.769a6423.8 6423.8 0 0 1 33.563 9.531l4.672 1.338a26641 26641 0 0 1 18.38 5.27 14092 14092 0 0 0 14.957 4.287c9.094 2.601 18.21 5.106 27.354 7.527 9.657 2.56 19.202 5.403 28.738 8.38 12.14 3.782 24.375 7.218 36.617 10.651l16.707 4.703c10.169 2.86 20.326 5.76 30.481 8.672v2c-45.929 10.067-45.929 10.067-61.406 13.094-10.51 2.063-20.988 4.27-31.469 6.469l-2.75.576-5.355 1.124q-2.629.552-5.259 1.1a815 815 0 0 0-12.957 2.804c-13.396 3.002-22.531 3.89-35.616-1.104l-3.607-1.333a1391 1391 0 0 1-10.287-3.862q-3.591-1.358-7.187-2.704a7967 7967 0 0 1-33.897-12.805 14222 14222 0 0 0-15.95-6.048c-47.38-17.94-47.38-17.94-62.905-24.194-3.201-1.289-6.394-2.489-9.68-3.547-10.154-3.535-15.155-10.246-21.294-18.684-1.759-2.402-3.623-4.707-5.506-7.011-4.516-5.662-8.983-11.362-13.452-17.06a11902 11902 0 0 0-8.302-10.568q-3.407-4.333-6.8-8.677a1259 1259 0 0 0-16.476-20.598 837 837 0 0 1-10.595-13.284c-8.19-10.726-8.19-10.726-17.25-20.688l-1.063 2.006C486.495 289.666 475.481 308.926 464 328c-1-2-1-2-.25-4.937C465 320 465 320 466.375 318.647c3.76-3.81 6.026-9.074 8.625-13.71l1.906-3.318c3.622-6.442 6.218-12.49 8.094-19.619a154 154 0 0 1 2.188-5.625l1.042-2.54L489 272h3l1-5 3-1-.767-2.99c-2.873-11.502-4.707-23.02-6.296-34.76q-.366-2.652-.736-5.305-.74-5.33-1.471-10.66a2605 2605 0 0 0-2.164-15.328 6986 6986 0 0 1-3.503-24.773l-.51-3.64-2.074-14.836c-2.677-19.183-2.677-19.183-5.528-38.342-.73-4.78-1.37-9.564-1.951-14.366"/><path fill="#0B41D2" d="m145.918 477.91 3.322.012a3199 3199 0 0 1 14.077.097c11.74.095 23.481.219 35.222.353q5.766.066 11.531.125c10.154.105 20.308.227 30.461.393q7.075.114 14.152.145c3.266.02 6.532.075 9.797.125l3.379-.014c10.957.24 19.499 5.36 28.266 11.541 5.23 3.608 10.56 6.974 16.012 10.235 10.764 6.514 21.149 13.567 31.55 20.64q4.174 2.83 8.35 5.658l5.406 3.666q7.89 5.35 15.834 10.618a402 402 0 0 1 15.598 10.871c5.964 4.345 11.96 8.637 18 12.875q4.066 2.87 8.125 5.75l1.791 1.266c6.568 4.666 12.262 9.342 17.209 15.734l-1 2-1.898-2.187-2.477-2.813-2.46-2.812L424 580h-2c-1.546 1.648-3.013 3.37-4.437 5.125l-2.372 2.883c-2.248 2.894-2.248 2.894-3.703 6.02-1.616 3.229-3.527 5.662-5.863 8.41-2.65 3.147-5.167 6.257-7.437 9.687-2.383 3.13-2.68 3.084-6.188 3.875a178 178 0 0 0-2 4c-2.625 2.25-2.625 2.25-5 4-5.136-2.001-10.011-4.41-14.937-6.875l-2.95-1.475c-7.592-3.825-15.059-7.847-22.5-11.952-10.737-5.904-21.64-11.483-32.528-17.1a1995 1995 0 0 1-14.952-7.845 1790 1790 0 0 0-13.082-6.835c-10.18-5.267-20.324-10.575-30.363-16.106-7.59-4.178-15.242-8.184-23.027-11.989-5.518-2.707-10.958-5.548-16.391-8.42-9.772-5.164-19.604-10.202-29.453-15.217q-6.094-3.106-12.187-6.214l-9.412-4.8q-13.274-6.77-26.54-13.553-2.654-1.358-5.312-2.713-3.684-1.882-7.366-3.765l-2.156-1.099A280 280 0 0 1 109 481v-2l3.148.035 4.227.027 2.059.026c3.764.017 7.423-.151 11.163-.588 5.456-.56 10.84-.627 16.321-.59"/><path fill="#0E59F2" d="M628 566c4.04.86 6.838 2.775 10.125 5.188l1.81 1.31c10.266 7.5 20.347 15.306 30.065 23.502-.751 4.627-2.286 8.931-3.86 13.328l-.898 2.534q-1.49 4.196-2.992 8.388c-.347.973-.694 1.946-1.05 2.949-7.059 19.797-14.323 39.518-21.611 59.232-4.915 13.297-9.797 26.603-14.589 39.944-6.204 17.257-12.577 34.449-19 51.625l-1.66 4.442a20903 20903 0 0 1-18.914 50.359l-.737 1.956a22247 22247 0 0 1-11.177 29.614l-.723 1.914q-4.68 12.39-9.27 24.813-1.44 3.881-2.884 7.763a946 946 0 0 0-1.741 4.741 863 863 0 0 1-2.347 6.351l-1.286 3.505L554 912l-3 1-.06-2.446c-.368-14.43-.806-28.838-1.815-43.241-1.102-15.802-1.863-31.617-2.625-47.438l-.097-2.017-.673-13.94-.188-3.901c-.603-12.423-1.27-24.841-1.983-37.258-.205-3.585-.388-7.172-.559-10.759l-.137-2.5c-.148-4.423.62-7.392 2.637-11.312l1.68-3.418.905-1.842c1.643-3.462 3.077-7.011 4.54-10.553 7.002-16.785 14.226-33.502 22.516-49.695 2.05-4.015 3.956-8.094 5.859-12.18 3.518-7.538 7.203-14.982 10.946-22.41a1928 1928 0 0 0 15.87-32.206C614.281 592.447 620.943 579.14 628 566"/><path fill="#052180" d="M502 362c6.353 3.925 12.137 8.434 17.928 13.124 4.773 3.859 9.618 7.607 14.51 11.313 6.35 4.822 12.576 9.773 18.747 14.822 8.603 7.035 17.358 13.87 26.19 20.616 5.654 4.32 11.17 8.8 16.679 13.304 5.17 4.217 10.424 8.307 15.727 12.356 5.223 3.99 10.385 8.054 15.533 12.138a484 484 0 0 0 5.014 3.882l3.047 2.382 2.71 2.09C640 470 640 470 640 474a96 96 0 0 1-5.562 6.688 2064 2064 0 0 0-3.348 3.792l-1.633 1.846c-1.738 1.997-3.362 4.062-4.957 6.174-2.986 3.918-6.158 7.647-9.375 11.375a672 672 0 0 0-12.656 15.09c-10.027 12.327-20.164 24.559-30.535 36.597-5.067 5.884-10.065 11.79-14.88 17.883-2.9 3.607-5.901 7.125-8.902 10.649-3.798 4.466-7.504 8.998-11.18 13.566-1.888 2.24-3.868 4.302-5.972 6.34-4.44-1.442-7.503-3.888-10.937-6.937-4.582-3.972-9.22-7.834-14-11.563l-1.767-1.38Q501.65 582.059 499 580c-8.359-6.5-16.598-13.12-24.751-19.876-5.226-4.317-10.55-8.466-15.944-12.57-3.81-2.92-7.525-5.955-11.243-8.991a1189 1189 0 0 0-20.344-16.22c-2.91-2.275-5.814-4.56-8.718-6.843a6744 6744 0 0 0-10.781-8.46l-1.887-1.48-3.539-2.769A410 410 0 0 1 391 494c1.598-3.863 4.222-6.582 7.063-9.562 4.368-4.672 8.48-9.474 12.492-14.458 2.915-3.553 5.923-7.017 8.945-10.48a568 568 0 0 0 13.2-15.7c3.68-4.48 7.475-8.862 11.257-13.257 2.885-3.354 5.75-6.726 8.606-10.106l1.367-1.617q3.375-3.995 6.746-7.996a1460 1460 0 0 1 14.949-17.449 577 577 0 0 0 13.098-15.59c4.352-5.323 8.822-10.548 13.277-15.785m4 34a141 141 0 0 0-5.437 6.188l-1.626 1.928a1499 1499 0 0 0-3.332 3.969 757 757 0 0 1-4.351 5.142c-5.734 6.725-11.363 13.533-16.961 20.372a566 566 0 0 1-13.738 16.112c-2.698 2.74-2.698 2.74-3.555 6.289h-2c-1.417 1.549-2.758 3.168-4.062 4.813l-2.438 3.042-1.258 1.584c-5.341 6.712-10.786 13.29-16.613 19.588-1.58 1.915-2.623 3.713-3.629 5.973 6.663 5.682 13.34 11.33 20.203 16.77 3.642 2.904 7.25 5.85 10.86 8.793 4.898 3.99 9.823 7.932 14.828 11.789 3.882 3.034 7.671 6.183 11.478 9.31a3278 3278 0 0 0 9.443 7.713l2.058 1.675c5.052 4.102 10.166 8.12 15.306 12.113 4.227 3.306 8.236 6.8 12.152 10.474 1.57 1.574 1.57 1.574 3.672 1.363a147 147 0 0 0 5.125-6.437c3.812-4.962 7.718-9.737 11.926-14.372 2.957-3.325 5.734-6.792 8.539-10.246 3.94-4.814 7.975-9.547 12.003-14.288q3.457-4.075 6.907-8.157 4.154-4.915 8.32-9.82a1060 1060 0 0 0 15.098-18.164c2.537-3.066 5.178-6.025 7.867-8.957 1.42-1.493 1.42-1.493 1.215-3.559l2-2-1-2c-2.527-.656-2.527-.656-5-1l2-1a449 449 0 0 0-23.473-19.01c-7.076-5.369-13.953-10.968-20.823-16.597-3.873-3.166-7.793-6.274-11.704-9.393a15687 15687 0 0 1-9.469-7.574 3142 3142 0 0 1-8.258-6.621Q521.178 406.099 514 400.5l-1.711-1.352c-2.814-2.404-2.814-2.404-6.289-3.148"/><path fill="#0D6CFC" d="M470 106h2c1.535 7.262 2.742 14.538 3.805 21.883l.497 3.395q.79 5.423 1.573 10.847l.543 3.74c2.256 15.541 4.406 31.084 6.28 46.676 1.245 10.276 2.754 20.5 4.372 30.725l.454 2.873q.484 2.906 1.038 5.8c2.438 13.09 2.19 22.581-4.117 34.475l-1.744 3.44a893 893 0 0 1-4.634 8.964c-1.55 2.974-3.068 5.963-4.59 8.952-5.6 10.96-11.32 21.858-17.075 32.738-2.898 5.494-5.7 11.031-8.462 16.595-3.77 7.592-7.67 15.118-11.565 22.647-4.854 9.387-9.681 18.782-14.375 28.25-3.95-.857-6.773-2.664-10.062-4.937q-1.974-1.346-3.95-2.688l-2.306-1.57a722 722 0 0 0-7.8-5.165 3386 3386 0 0 1-7.397-4.857q-1.86-1.22-3.725-2.433a899 899 0 0 1-5.283-3.471l-3.123-2.045C378 359 378 359 377 356c.643-1.903.643-1.903 1.698-4.05 2.334-4.96 4.252-10.006 6.13-15.153l1.069-2.905q1.68-4.57 3.353-9.142 2.193-5.978 4.39-11.953l1.101-2.996c2.405-6.532 4.871-13.038 7.368-19.535 2.908-7.576 5.658-15.194 8.315-22.86 3.113-8.985 6.367-17.916 9.639-26.844l.96-2.625c5.84-15.95 11.816-31.847 17.856-47.722L442 182l.75-1.975c3.863-10.194 7.57-20.438 11.23-30.706C459.156 134.814 464.4 120.348 470 106"/><path fill="#32B8FE" d="M623 335c4.83.816 9.405 2.319 14.07 3.777 11.411 3.517 22.879 6.824 34.36 10.102l2.812.803q8.8 2.512 17.6 5.017 7.668 2.185 15.334 4.372 12.018 3.429 24.035 6.853 18.366 5.236 36.729 10.487l13.49 3.855L791 383l4.81 1.374 13.416 3.834L812 389l5.1 1.457 2.498.714 5.027 1.436 2.561.732 13.646 3.899 2.873.82 17.56 5.018 19.82 5.663 2.647.756L896 413v2c-46.128 10.11-46.128 10.11-61.378 13.088-12.72 2.493-25.397 5.204-38.08 7.879l-2.77.583q-2.588.544-5.174 1.092c-13.586 2.857-22.67-.205-35.598-4.642l-2.771-.949a4237 4237 0 0 1-9.042-3.113l-2.89-.995a325 325 0 0 1-15.601-5.873c-5.5-2.182-11.074-4.172-16.634-6.195l-7.976-2.91-2.033-.742a1515 1515 0 0 1-13.701-5.094l-3.657-1.373q-3.415-1.284-6.826-2.583c-5.208-1.953-10.228-3.546-15.679-4.634-3.305-.813-6.354-2.146-9.49-3.456-5-2.006-10.141-3.605-15.263-5.27q-3.222-1.05-6.44-2.106l-2.839-.923C620 386 620 386 619 385c-3.728.01-7.442.133-11.168.258-4.069-.274-6.401-1.103-9.832-3.258l-1-2h-5l2.625-2.937c5.38-6.285 9.565-12.633 12.188-20.5 1.597-3.447 3.596-5.778 6.187-8.563h2l1-4h2l.813-1.687c1.288-2.51 2.716-4.906 4.187-7.313"/><path fill="#1F95FE" d="M294 481h2v2l2.125.375c2.875.625 2.875.625 5.398 1.602 4.648 1.368 9.156 1.685 13.977 2.023l3.281.246c7.933.556 15.868.928 23.813 1.254l3.08.127q7.703.316 15.406.588l5.795.223 2.643.082c9.07.363 17.012 1.08 23.982 7.23q1.8 1.498 3.602 2.992l1.903 1.605c3.547 2.94 7.218 5.72 10.87 8.528a950 950 0 0 1 19.365 15.439 875 875 0 0 0 14.542 11.593c4.902 3.835 9.76 7.72 14.615 11.615 4.159 3.333 8.342 6.633 12.54 9.915 5.84 4.57 11.61 9.22 17.348 13.916 2.956 2.418 5.917 4.821 8.95 7.143l2.765 2.129 2.375 1.79L506 585v3l1.566.668c3.409 1.866 6.333 4.234 9.372 6.644l1.841 1.436q1.802 1.42 3.565 2.888c1.464 1.206 2.986 2.34 4.515 3.462 3.396 4.603 3.182 9.438 3.453 15.027l.221 3.266c.388 6.131.52 12.22.394 18.362-.028 2.418-.028 2.418 1.073 5.247.226 1.703.411 3.412.573 5.123l.303 3.168.315 3.428.332 3.54q.347 3.717.689 7.434.522 5.647 1.06 11.291l.67 7.235.321 3.379c.618 6.822.867 13.553.737 20.402a177 177 0 0 1-7.5-9.937c-3.666-5.069-7.616-9.79-11.714-14.507-11.42-13.166-22.11-26.918-32.525-40.886-4.356-5.835-8.875-11.412-13.773-16.803C470 626 470 626 469 623l-3-1v-2h-3c-1.066-1.625-2.047-3.306-3-5a190 190 0 0 0-3-4.125l-1.5-2.008c-1.41-1.756-2.9-3.287-4.5-4.867a657 657 0 0 1-5.379-6.258c-1.52-1.837-1.52-1.837-3.621-2.742l-1.25-2.312c-1.654-2.927-1.654-2.927-4.937-4.813L433 586v-3l-3-1a225 225 0 0 1-4-4 135 135 0 0 0-4.547-3.348l-2.558-1.834q-2.663-1.893-5.336-3.773l-2.543-1.83-2.335-1.653L407 564v-3l-1.687-.781C398.27 556.507 392.057 551.11 386 546c-5.483-4.623-11.15-8.857-17-13l-4.737-3.405q-3.601-2.58-7.216-5.14a2205 2205 0 0 1-4.27-3.042c-12.188-8.691-24.62-16.89-37.299-24.847-2.28-1.44-4.544-2.9-6.802-4.375l-1.942-1.266a2434 2434 0 0 1-4.957-3.253c-2.547-1.533-4.985-2.668-7.777-3.672z"/><path fill="#44CAFE" d="m434 379 1 2c-4.7 10.887-12.156 16.865-22 23l-5.258 3.355c-19.006 12.055-38.281 23.752-57.712 35.109-7.948 4.646-15.83 9.4-23.718 14.146q-3.105 1.867-6.21 3.73c-.602.36-1.204.722-1.823 1.094l-3.528 2.113a1867 1867 0 0 0-11.052 6.676l-2.765 1.675a1589 1589 0 0 0-5.41 3.293l-2.481 1.5-2.218 1.35C289 479 289 479 287 479v2l1.688.516 2.312.734 2.25.703c7.194 2.739 13.537 6.692 19.938 10.922l2.604 1.708Q319.9 498.285 324 501l2.748 1.811c9.874 6.512 19.68 13.089 29.26 20.029a441 441 0 0 0 8.055 5.66c8.721 6.087 17.027 12.747 25.312 19.41 3.187 2.537 6.4 5.038 9.625 7.528l1.71 1.326c3.01 2.326 3.01 2.326 6.29 4.236l1 3c1.796 1.627 1.796 1.627 4.043 3.18l2.506 1.816 2.639 1.879C432.67 582.009 432.67 582.009 434 586a132 132 0 0 0 5 3c1.813 1.5 1.813 1.5 3 3v3l1.797.781c2.38 1.317 3.713 2.645 5.453 4.719l1.578 1.844C452 604 452 604 452 606l1.766.723c2.694 1.54 4.097 3.26 5.984 5.715l1.86 2.37C463 617 463 617 463 620h3c1.648 1.54 1.648 1.54 3.375 3.625l1.871 2.234L473 628l2.438 2.875A756 756 0 0 1 478 634l1.805 2.207c3.503 4.328 6.887 8.705 10.132 13.23 3.346 4.643 6.87 9.084 10.52 13.489 2.437 2.946 4.846 5.913 7.25 8.887 4.614 5.705 9.269 11.365 14.043 16.937 5.035 5.883 9.67 12.008 14.25 18.25-.569-12.899-1.508-25.732-2.73-38.585-.275-2.902-.542-5.804-.81-8.706q-.26-2.79-.523-5.58l-.24-2.607-.232-2.422-.2-2.114c-.274-2.05-.758-3.983-1.265-5.986a77 77 0 0 1-.02-4.45c.058-6.143-.256-12.234-.668-18.362l-.162-3.35c-.38-6.276-.38-6.276-3.252-11.71L523 601a884 884 0 0 1-3.7-3.078q-1.99-1.59-3.987-3.172l-2.05-1.64c-3.459-2.82-3.459-2.82-7.263-5.11v-2c2.915 1.348 5.276 2.89 7.75 4.934l2.094 1.716 2.156 1.788 4.25 3.496 1.89 1.564c1.866 1.555 1.866 1.555 4.032 2.944 2.74 2.335 2.735 4.696 3.111 8.193l.226 3.043.264 3.485.278 3.786.454 6q.24 3.184.48 6.37a7777 7777 0 0 0 1.846 24.07 1852 1852 0 0 0 3.419 38.673l.25 2.539c.71 7.153 1.446 14.288 2.5 21.399 5.681-10.577 11.162-21.211 16.248-32.089 3.426-7.313 7.041-14.527 10.665-21.743 1.826-3.642 3.64-7.29 5.454-10.938 7.333-14.722 14.672-29.43 22.422-43.94a812 812 0 0 0 4.09-7.864c7.45-14.45 14.944-28.979 24.121-42.426l5 3c-1.788 4.799-4.097 9.303-6.402 13.867l-2.683 5.34-1.413 2.807C610.494 601.93 602.56 617.867 595 634l-1.085 2.315c-.35.75-.702 1.499-1.063 2.27l-2.04 4.352-.968 2.07c-2.524 5.37-5.17 10.674-7.843 15.973-3.487 6.94-6.783 13.965-10.062 21.004q-1.302 2.791-2.61 5.578-2.152 4.592-4.285 9.19-1.143 2.46-2.291 4.917c-5.443 11.658-10.74 23.311-15.292 35.351-2.256 5.878-2.256 5.878-4.461 6.98-.017-.776-.034-1.552-.05-2.352-.797-9.955-5.03-15.494-11.305-22.719-2.919-3.423-5.646-6.995-8.395-10.554l-1.768-2.271c-5.108-6.574-10.096-13.236-15.076-19.907-4.95-6.62-10.027-13.13-15.156-19.613-6.83-8.654-13.413-17.478-19.937-26.364A1603 1603 0 0 0 460 625a1702 1702 0 0 1-11.212-15.07 2799 2799 0 0 0-3.568-4.84 861 861 0 0 1-8.423-11.57C431.226 585.775 425.94 579.452 418 574q-1.957-1.392-3.91-2.79a1142 1142 0 0 0-8.793-6.202 973 973 0 0 1-9.508-6.727 4907 4907 0 0 0-6.885-4.92l-3.706-2.653c-12.231-8.768-24.736-17.086-37.323-25.333l-8.584-5.638-5.555-3.647a2039 2039 0 0 1-16.033-10.637c-5.204-3.483-10.46-6.854-15.828-10.078l-4.543-2.75-2.205-1.332a633 633 0 0 1-6.053-3.73l-1.81-1.127a3440 3440 0 0 1-4.76-2.975c-3.752-2.19-6.682-2.614-10.952-2.758l-3.407-.118-3.72-.112-3.888-.126c-14.729-.46-29.462-.675-44.196-.88q-5.504-.077-11.007-.16-10.667-.159-21.334-.307v-1l3.27-.004q15.25-.026 30.501-.128c5.227-.034 10.454-.06 15.681-.064q7.568-.008 15.134-.077 2.886-.02 5.773-.013c2.697.005 5.391-.021 8.087-.055l2.41.027c4.18-.087 5.925-.503 9.179-3.227L276 472c1 3 1 3 0 6l4-1 1 2c2.955.345 2.955.345 4.375-1.312L287 476a264 264 0 0 1 5-3l2.125-1.687C296 470 296 470 299 470l1-2a206 206 0 0 1 5-2l2.688-1.625C310 463 310 463 312 463l1-2 3-2 1-3 3.25-.25c4.198-.84 4.892-1.8 7.75-4.75 3.25-.75 3.25-.75 6-1v-2c1.934-1.437 1.934-1.437 4.438-3 3.372-1.953 3.372-1.953 5.562-5 3.046-1.74 5.858-2.962 9.25-3.875 4.138-1.241 7.7-3.007 11.516-5.004C367 430 367 430 370 429v-2l2.938-1.687 1.91-1.098q2.28-1.285 4.586-2.524l2.441-1.316 2.305-1.227c1.975-1.026 1.975-1.026 2.82-3.148a190 190 0 0 1 5.148-2.21c4.742-1.977 4.742-1.977 7.852-5.79a115 115 0 0 1 5.375-2.625c10.777-5.006 10.777-5.006 18.625-13.375h3l.688-2c1.718-3.927 3.98-7.413 6.312-11"/><path fill="#5FE5FE" d="M480 155h1l2 12 3 1 .288 1.702c1.709 9.999 3.497 19.923 6.087 29.736 2.098 7.965 3.722 15.988 5.24 24.081.877 4.653 1.792 9.298 2.701 13.944.417 2.156.824 4.315 1.211 6.476 2.434 13.409 8.102 22.175 16.612 32.711 2.996 3.783 5.76 7.726 8.548 11.663a355 355 0 0 0 12.125 16c14.43 17.992 14.43 17.992 14.063 25.105.156 3.217 1.115 4.423 3.125 6.894l1.688 2.114L559 340l-1 2a438 438 0 0 1-16.25-20.187c-5.058-6.683-10.292-13.189-15.648-19.635a576 576 0 0 1-10.914-13.553C507.03 277.929 507.03 277.929 498 268l-1.063 2.006C486.495 289.666 475.481 308.926 464 328c-1-2-1-2-.25-4.937C465 320 465 320 466.375 318.647c3.76-3.81 6.026-9.074 8.625-13.71l1.906-3.318c3.622-6.442 6.218-12.49 8.094-19.619a154 154 0 0 1 2.188-5.625l1.042-2.54L489 272h3l1-5 3-1-.767-2.99c-2.873-11.502-4.707-23.02-6.296-34.76q-.366-2.652-.736-5.305-.735-5.295-1.462-10.592c-1.498-10.89-3.033-21.778-4.688-32.646l-.381-2.53a801 801 0 0 0-.75-4.859c-.862-5.808-1.067-11.45-.92-17.318"/><path fill="#35B7FE" d="m624 561 5 3c-1.788 4.799-4.097 9.303-6.402 13.867l-2.683 5.34-1.413 2.807C610.494 601.93 602.56 617.867 595 634l-1.085 2.315c-.35.75-.702 1.499-1.063 2.27l-2.04 4.352-.968 2.07c-2.524 5.37-5.17 10.674-7.843 15.973-3.487 6.94-6.783 13.965-10.062 21.004q-1.302 2.791-2.61 5.578-2.152 4.592-4.285 9.19-1.143 2.46-2.291 4.917c-5.443 11.658-10.74 23.311-15.292 35.351-2.256 5.878-2.256 5.878-4.461 6.98q-.254-3.312-.5-6.625l-.281-3.727c-.579-9.652-.579-9.652 1.406-13.71l1.086-2.282L546 715q1.63-3.53 3.25-7.062 1.374-2.97 2.75-5.938h2l.277-2.012c.937-3.871 2.558-7.225 4.285-10.8l.999-2.1Q560.775 684.54 562 682h2l.223-2.465c.995-4.529 2.968-8.073 5.215-12.097 4.504-7.7 4.504-7.7 6.91-16.176.914-4.573 2.955-8.328 5.09-12.45l1.357-2.666c3.794-7.423 7.67-14.802 11.576-22.166 1.87-3.527 3.711-7.068 5.54-10.617C607.35 588.936 614.835 574.428 624 561"/><path fill="#53DAFE" d="m594 381 2.168.656c5.689 1.59 10.721 2.509 16.644 2.344 5.27-.125 8.419.615 13.188 3 2.096.673 4.201 1.316 6.313 1.938a152 152 0 0 1 14.37 5.128c4.612 1.859 9.34 3.346 14.102 4.762 8.805 2.627 17.373 5.74 25.972 8.96 3.893 1.455 7.788 2.9 11.684 4.345a30377 30377 0 0 1 20.155 7.481q5.395 2.004 10.779 4.034l2.154.811q1.997.753 3.993 1.51c5.55 2.092 11.158 3.957 16.794 5.8 4.894 1.635 9.727 3.416 14.563 5.215 3.044.99 5.955 1.578 9.121 2.016-2.839 1.893-4.317 2.469-7.562 3.125l-2.38.508c-9.273 1.113-16.16-.247-24.87-3.57l-3.607-1.333a1391 1391 0 0 1-10.287-3.862q-3.591-1.358-7.187-2.704a7967 7967 0 0 1-33.897-12.805q-7.974-3.03-15.95-6.048c-39.274-14.87-39.274-14.87-56.885-21.748l-3.262-1.268c-5.53-2.176-10.842-4.547-16.113-7.295z"/><path fill="#2CAEFE" d="M492 249h1q.757 3.124 1.5 6.25l.844 3.516C496 262 496 262 496 266c-1.437 1.563-1.437 1.563-3 3l-1 3h-3l-.812 3.563c-1.002 4.021-2.522 7.638-4.188 11.437q-.62 2.018-1.219 4.043c-1.877 5.702-4.805 10.68-7.844 15.832l-1.642 2.836c-2.027 3.488-4.057 6.932-6.295 10.289h-2l-.078 3.715c-.766 6.77-4.279 12.064-7.672 17.848q-1.012 1.764-2.02 3.532a1686 1686 0 0 1-3.11 5.438c-3.633 6.324-7.102 12.732-10.558 19.154l-1.7 3.15A6416 6416 0 0 0 436 380c-1.937-.375-1.937-.375-4-1l-1-2-4 7-1-2c1.105-2.68 1.105-2.68 2.832-6.09l.931-1.854c1.009-2.002 2.029-3.998 3.05-5.993l2.088-4.13c4.17-8.235 8.413-16.431 12.745-24.582a550 550 0 0 0 7.229-14.101 695 695 0 0 1 7.945-15.533c5.952-11.307 11.75-22.69 17.49-34.106q1.374-2.727 2.752-5.451a2214 2214 0 0 0 3.887-7.73l1.195-2.352c1.831-3.678 3.34-6.947 3.856-11.078"/><path fill="#1A8BFE" d="m760 443-2 1-.805 1.73c-1.625 3.087-3.838 5.138-6.32 7.582l-1.509 1.488c-3.24 3.17-6.57 6.194-10.018 9.134-3.296 2.9-6.468 5.928-9.66 8.941a264 264 0 0 1-16.344 14.184c-2.684 2.222-5.063 4.63-7.477 7.136-2.297 2.22-4.748 4.183-7.242 6.18-4.472 3.597-8.519 7.412-12.523 11.516-2.517 2.525-5.167 4.843-7.872 7.164-2.789 2.432-5.51 4.937-8.23 7.445-4.106 3.783-8.25 7.513-12.477 11.16A76 76 0 0 0 654 541l-3-1a871 871 0 0 1 4.688-5.25l2.636-2.953c3.031-3.237 6.281-6.21 9.558-9.193 7.087-6.5 13.897-13.255 20.68-20.069l3.743-3.746q4.861-4.87 9.72-9.745 4.952-4.966 9.909-9.929A29470 29470 0 0 0 732 459l2.662-2.788C737 454 737 454 740 453l1-3c1.742-1.79 1.742-1.79 3.875-3.625l2.117-1.852c4.405-3.342 7.874-2.28 13.008-1.523"/><path fill="#121C4E" d="M412 717c2.508 2.287 4.07 4.626 5.715 7.586l1.56 2.786 1.663 3.003q1.766 3.159 3.535 6.316l1.797 3.22c2.51 4.481 5.053 8.943 7.605 13.402l1.463 2.555a12532 12532 0 0 0 6.452 11.255c6.945 12.11 13.912 24.2 21.179 36.121 2.965 4.886 5.738 9.852 8.457 14.879 2.751 5.029 5.637 9.98 8.512 14.94l6.029 10.423a15861 15861 0 0 1 9.72 16.827l1.901 3.291c3.304 5.727 6.593 11.46 9.863 17.207 7.108 12.488 14.358 24.89 21.656 37.267q2.926 4.968 5.803 9.965l2.34 4.02 1.89 3.285c2.875 4.1 5.284 6.26 10.192 7.48l3.48.422c1.162.15 2.323.3 3.52.453L559 944v2c-6.122 1.464-11.401 1.08-17-2-2.856-3.041-4.882-6.42-7-10a636 636 0 0 0-3.375-4.937c-1.66-2.446-2.68-4.23-3.625-7.063-2.174-4.008-4.48-7.94-6.77-11.882q-1.273-2.192-2.538-4.388-1.996-3.463-4.005-6.918l-1.273-2.213-1.215-2.08-1.067-1.84c-1.237-1.835-2.424-3.268-4.132-4.679h-3l.125-3.25c-.154-4.622-.91-6.534-4.125-9.75-1.26-2.536-2.423-5.106-3.586-7.687-1.562-2.555-2.652-3.279-5.414-4.313l.313-2c-.403-3.868-2.045-6.072-4.22-9.23C486 850 486 850 486 848l-3-1v-3l-1-3-2-1a87 87 0 0 1-2.75-4.875l-1.598-2.988q-1.643-3.119-3.273-6.242l-1.567-2.957-1.417-2.723c-1.352-2.482-1.352-2.482-4.395-4.215v-3c-.947-2.081-.947-2.081-2.266-4.273l-1.449-2.5-1.535-2.602-1.488-2.578c-4.007-7.598-4.007-7.598-10.262-13.047q-.51-2.999-1-6l-2-2-1-3c-1.147-2.522-2.016-4.016-4-6-.95-1.858-1.86-3.738-2.75-5.625-4.412-9.098-9.62-17.74-14.75-26.445l-1.723-2.931a575 575 0 0 0-3.773-6.271l-1.942-3.22-1.777-2.91C412 721 412 721 412 717"/><path fill="#121D55" d="M202 554c4.801 1.447 9.136 3.48 13.559 5.809l2.143 1.113q3.37 1.753 6.736 3.515 3.36 1.756 6.724 3.505 2.086 1.085 4.167 2.177c4.153 2.163 8.346 4.085 12.671 5.881v2l2.57.773c3.644 1.303 6.932 2.986 10.305 4.852 5.04 2.738 10.106 5.399 15.25 7.938 16.79 8.317 33.391 17.04 49.958 25.791 7.23 3.819 14.483 7.595 21.74 11.362q2.727 1.418 5.443 2.856 2.806 1.464 5.656 2.84C365.41 637.661 369.29 640.766 373 647l1.494 2.487a398 398 0 0 1 4.693 8.326q1.725 3.09 3.454 6.18l1.72 3.084a946 946 0 0 0 7.077 12.36l1.3 2.25c2.668 4.604 5.372 9.185 8.094 13.758l1.969 3.327q1.924 3.249 3.869 6.486l1.752 2.965 1.58 2.648L411 713l-1 2c-2.138-2.016-3.747-3.989-5.262-6.504l-1.2-1.994-1.226-2.064-1.26-2.077C398 697.253 398 697.253 398 695l-3-1v-1h-2l-.27-1.672c-1.137-6.042-3.23-10.586-6.48-15.765l-1.354-2.223a747 747 0 0 0-2.671-4.352c-1.614-2.62-3.167-5.273-4.725-7.926-1.406-2.382-2.536-4.098-4.5-6.062-2-3-2-3-2.375-4.812-1.586-5.551-4.408-8.316-9.3-11.118q-2.808-1.495-5.637-2.945l-2.995-1.581a1093 1093 0 0 0-5.958-3.12 481 481 0 0 1-6.958-3.697c-9.442-5.118-19.043-9.902-28.669-14.663a3352 3352 0 0 1-7.585-3.765 691 691 0 0 1-12.574-6.47l-3.168-1.666a1905 1905 0 0 1-6.24-3.303l-2.877-1.516-2.58-1.37c-2.002-1.115-2.002-1.115-4.084-.974v-2h-4v-2l-1.937-.75c-6.626-2.704-13.003-5.638-19.219-9.184-6.179-3.514-12.388-6.958-18.719-10.191l-3.43-1.758L222 567l-2 1-2-1v-3l-1.937-.687C205.067 558.6 205.067 558.6 202 554m191 134 1 2Z"/><path fill="#111E5A" d="M484 79v2h2a99 99 0 0 1 4.5 6l1.36 1.931c3.425 4.919 6.624 9.954 9.762 15.058 4.43 7.174 9.06 14.215 13.69 21.261l6.22 9.47c8.167 12.43 16.254 24.903 24.166 37.496a614 614 0 0 0 10.373 15.871c3.741 5.576 7.337 11.24 10.929 16.913 4.383 6.92 8.816 13.796 13.385 20.594 4.487 6.682 8.842 13.449 13.202 20.214C602.693 259.97 602.693 259.97 612 274l-1 2c-4.123-3.662-6.814-8.078-9.75-12.687l-1.693-2.63A3123 3123 0 0 1 594 252l-10.262-16.062a898 898 0 0 0-12.012-18.33c-4.309-6.42-8.418-12.964-12.555-19.495-3.329-5.248-6.697-10.46-10.171-15.613-3.999-5.936-7.857-11.954-11.687-18-6.739-10.634-13.603-21.182-20.495-31.716a3814 3814 0 0 1-6.985-10.746c-5.493-8.472-11.015-16.922-16.666-25.29a392 392 0 0 1-3.538-5.42C484.343 82.822 484.343 82.822 476 78c-5.807-.663-10.988-.755-16.5 1.313-3.736 4.016-5.457 8.654-7.5 13.687a174 174 0 0 1-2 4h-1c.483-7.414 3.226-14.08 8.375-19.5C466.9 72.057 474.938 73.892 484 79"/><path fill="#71E5FE" d="m434 379 1 2c-4.7 10.887-12.156 16.865-22 23l-5.258 3.355c-19.006 12.055-38.281 23.752-57.712 35.109-9.392 5.49-18.7 11.123-28.02 16.734C310.38 466.2 298.693 473.105 287 480c.756 3.786 2.126 5.404 5 8-3.37-1.274-6.383-2.78-9.5-4.576-6.127-3.078-11.75-3.18-18.512-3.201l-3.793-.07q-4.02-.074-8.041-.11a1154 1154 0 0 1-12.508-.2 4159 4159 0 0 0-23.305-.375q-5.504-.079-11.007-.161-10.667-.159-21.334-.307v-1l3.27-.004q15.25-.026 30.501-.128c5.227-.034 10.454-.06 15.681-.064q7.568-.008 15.134-.077 2.886-.02 5.773-.013c2.697.005 5.391-.021 8.087-.055l2.41.027c4.18-.087 5.925-.503 9.179-3.227L276 472c1 3 1 3 0 6l4-1 1 2c2.955.345 2.955.345 4.375-1.312L287 476a264 264 0 0 1 5-3l2.125-1.687C296 470 296 470 299 470l1-2a206 206 0 0 1 5-2l2.688-1.625C310 463 310 463 312 463l1-2 3-2 1-3 3.25-.25c4.198-.84 4.892-1.8 7.75-4.75 3.25-.75 3.25-.75 6-1v-2c1.934-1.437 1.934-1.437 4.438-3 3.372-1.953 3.372-1.953 5.562-5 3.046-1.74 5.858-2.962 9.25-3.875 4.138-1.241 7.7-3.007 11.516-5.004C367 430 367 430 370 429v-2l2.938-1.687 1.91-1.098q2.28-1.285 4.586-2.524l2.441-1.316 2.305-1.227c1.975-1.026 1.975-1.026 2.82-3.148a190 190 0 0 1 5.148-2.21c4.742-1.977 4.742-1.977 7.852-5.79a115 115 0 0 1 5.375-2.625c10.777-5.006 10.777-5.006 18.625-13.375h3l.688-2c1.718-3.927 3.98-7.413 6.312-11"/><path fill="#42C5FE" d="M286 480c9.542 3.33 17.66 7.407 25.934 13.2 5.477 3.832 11.195 7.291 16.897 10.777l2.345 1.457 2.09 1.283C335 508 335 508 337 511c-2.972-1.125-5.334-2.223-8-4l-2 3 2.169.783c2.998 1.289 5.447 2.84 8.132 4.694l2.959 2.03c1.007.7 2.015 1.398 3.053 2.118l3.11 2.14q3.794 2.611 7.577 5.235l-2 1a137 137 0 0 1-7.77-4.914l-2.377-1.58c-2.56-1.704-5.113-3.418-7.666-5.131a5781 5781 0 0 0-10.421-6.93l-2.581-1.715a517 517 0 0 0-22.206-13.936c-4.23-2.54-7.618-5.114-10.979-8.794l-2-2z"/><path fill="#121F5A" d="M525 408c3.274 1.48 5.847 3.354 8.625 5.625l2.664 2.164L539 418a2800 2800 0 0 0 5 4q3.683 2.944 7.36 5.895c4.153 3.332 8.322 6.643 12.516 9.924a1193 1193 0 0 1 19.137 15.324c5.614 4.573 11.293 9.06 16.999 13.517A817 817 0 0 1 608 473c-.315 4.52-1.23 6.383-4.465 9.454-3.875 3.902-7.18 8.381-10.627 12.66l-1.826 2.245-1.65 2.046C588 501 588 501 586 502c.577-3.984 2.57-6.219 5.125-9.25l2.441-2.91c3.118-3.638 6.247-7.263 9.434-10.84l-3-2 5-1v-3l-5 1v-4c-1.687-1.84-1.687-1.84-4.062-3.5l-2.77-2.105L590 462c-2.429-1.923-4.838-3.869-7.25-5.812-8.343-6.684-16.751-13.284-25.176-19.864a1357 1357 0 0 1-24.89-19.964 177 177 0 0 0-4.586-3.551C526 411 526 411 525 408"/><path fill="#57E0FE" d="M576 651c1.226 3.678.684 4.266-.984 7.64l-1.336 2.747-1.43 2.863q-1.37 2.788-2.734 5.578l-1.315 2.674c-1.504 3.128-2.873 6.292-4.201 9.498h-2l-1.187 3.813c-1.852 5.59-4.298 10.87-6.813 16.187h-2l-.316 2.16c-.762 3.165-1.99 5.466-3.621 8.278-3.996 7.175-5.39 12.405-5.063 20.562l-1.562-2a175 175 0 0 0-5.625-6.562c-3.725-4.232-7.072-8.703-10.426-13.231A664 664 0 0 0 518 701.5c-4.727-6.122-9.375-12.3-14-18.5l1-2c5.386 6.83 10.763 13.666 16.063 20.563l1.22 1.583a732 732 0 0 1 6.46 8.522c.45.6.901 1.199 1.366 1.816a413 413 0 0 1 2.58 3.467c2.05 2.715 3.003 3.946 6.311 5.049l-1-3a99 99 0 0 1-.062-5.187l.027-2.731L538 709c2.12 3.534 2.532 6.944 3 11 5.729-10.665 11.218-21.402 16.382-32.352 5.852-12.41 12.025-24.616 18.618-36.648"/><path fill="#121E56" d="M87 494c5.266 1.512 9.664 3.91 14.375 6.625 6.296 3.62 12.707 6.954 19.21 10.182 7.95 3.946 15.839 8.005 23.728 12.068l2.312 1.19C158.117 529.98 169.59 535.928 181 542l2.218 1.18q6.395 3.402 12.782 6.82c-2.453.89-3.666 1.113-6.172.262l-2.363-1.219-2.675-1.359-2.852-1.496-2.953-1.513c-7.21-3.706-14.375-7.503-21.536-11.305-6.634-3.508-13.315-6.992-20.449-9.37l1-1-1.67-.82c-11.854-5.83-23.574-11.827-35.094-18.294-4.372-2.432-8.467-4.33-13.236-5.886-.875-2.125-.875-2.125-1-4"/><path fill="#0A58F8" d="m613 577 1 2c-.861 1.993-.861 1.993-2.246 4.445l-1.541 2.77c-.545.96-1.09 1.92-1.65 2.91a468 468 0 0 0-11.44 21.598c-2.432 4.906-4.909 9.786-7.42 14.652-.54 1.049-.54 1.049-1.093 2.118l-2.22 4.3c-10.153 19.662-20.17 39.378-29.651 59.374q-1.247 2.628-2.504 5.25a472 472 0 0 0-2.52 5.361l-1.281 2.699-1.128 2.416c-1.464 2.363-3 3.588-5.306 5.107.361-3.159.813-4.775 2.875-7.25 2.801-3.625 3.87-7.389 5.125-11.75h2l.938-3.312A170 170 0 0 1 557 683h2c.182-.568.364-1.137.55-1.723 1.59-4.884 3.355-9.587 5.45-14.277h2l.313-2.562c.77-3.852 2.05-6.879 3.687-10.438h2v-3h2l.34-2.137c.723-3.137 1.855-5.764 3.222-8.676l1.38-2.957L581 635h2l.375-1.625c.747-2.839 1.678-5.597 2.625-8.375h2l.656-2.328c1.847-5.047 4.333-9.677 6.844-14.422l1.605-3.053c13.748-26.05 13.748-26.05 15.895-28.197"/><path fill="#041CB9" d="M497 267c5.076 4.06 9.234 8.401 13.25 13.5l1.695 2.119c1.693 2.12 3.376 4.25 5.055 6.381l1.471 1.864q3.405 4.318 6.79 8.652c2.84 3.624 5.727 7.21 8.614 10.796 4.272 5.313 8.441 10.695 12.563 16.125 4.822 6.351 9.773 12.579 14.823 18.75 3.5 4.278 6.954 8.587 10.364 12.938l1.339 1.703q3.529 4.5 6.99 9.05l1.481 1.932a384 384 0 0 1 2.774 3.661c2.593 3.367 4.994 5.603 8.791 7.529l-2 1c-4.836-2.145-7.424-5.698-10.5-9.812q-1.389-1.823-2.781-3.645l-1.364-1.788c-3.59-5.056-3.59-5.056-8.355-8.755l-1.223-2.04c-2.422-4.035-5.309-7.638-8.215-11.335l-1.882-2.407a1779 1779 0 0 0-13.347-16.811q-4.983-6.207-9.895-12.47l-1.371-1.745a2977 2977 0 0 1-6.708-8.583 1042 1042 0 0 0-15.734-19.671l-1.767-2.166c-3.123-3.793-6.314-7.368-9.858-10.772l-3 6c-1.392-4.176.177-6.135 2-10"/><path fill="#111C53" d="M780 542c-1.403 4.209-4.466 5.814-7.937 8.313q-2.209 1.62-4.415 3.246l-2.325 1.71c-3.763 2.804-7.446 5.707-11.135 8.606-6.929 5.425-13.969 10.676-21.073 15.868-6.295 4.615-12.468 9.373-18.598 14.205-3.546 2.784-7.111 5.505-10.802 8.095-9.386 6.544-9.386 6.544-15.715 15.957l-1-2c2.695-7.153 6.412-10.396 12.625-14.625q2.589-1.833 5.172-3.672l2.642-1.865c3.897-2.797 7.668-5.746 11.436-8.713 12.989-10.174 26.126-20.156 39.344-30.031 4.35-3.275 8.659-6.603 12.968-9.93L774 545c.742-.59 1.485-1.18 2.25-1.79C778 542 778 542 780 542"/><path fill="#32BBFE" d="M506 586c2.915 1.348 5.276 2.89 7.75 4.934l2.094 1.716 2.156 1.788 4.25 3.496 1.89 1.564c1.866 1.555 1.866 1.555 4.032 2.944 2.779 2.368 2.745 4.785 3.125 8.334.08 1.068.16 2.136.244 3.236l.283 3.686.147 1.966q.23 3.084.468 6.167.42 5.473.83 10.946.733 9.705 1.477 19.41l.16 2.102c.71 9.265 1.497 18.516 2.513 27.753.434 4.008.666 7.926.581 11.958l-2 1-.183-2.023q-.944-10.415-1.898-20.829-.356-3.887-.707-7.775-.507-5.586-1.02-11.17l-.316-3.517-.303-3.275-.263-2.88c-.276-2.257-.737-4.336-1.31-6.531a77 77 0 0 1-.02-4.45c.058-6.143-.256-12.234-.668-18.362l-.162-3.35c-.38-6.276-.38-6.276-3.252-11.71L523 601a884 884 0 0 1-3.7-3.078q-1.99-1.59-3.987-3.172l-2.05-1.64c-3.459-2.82-3.459-2.82-7.263-5.11z"/><path fill="#111E58" d="m878 467 3 1c-27.126 20.702-27.126 20.702-37.312 28.16-8.985 6.582-17.885 13.245-26.638 20.134A905 905 0 0 1 811 521l-1.963 1.546c-1.62 1.233-3.324 2.355-5.037 3.454l-3-1c9.958-7.836 20-15.532 30.226-23.017a795 795 0 0 0 16.81-12.694 818 818 0 0 1 11.765-8.902 741 741 0 0 0 7.18-5.43q2.04-1.542 4.082-3.082l1.95-1.51c1.606-1.201 3.292-2.294 4.987-3.365"/><path fill="#177AFB" d="m692 499 3 2-1.137 1.32-1.55 1.805-1.676 1.945a188 188 0 0 0-4.012 4.93c-2.585 2.954-5.275 5.41-8.254 7.95-2.844 2.459-5.608 5-8.371 7.55a514 514 0 0 1-12.477 11.16A76 76 0 0 0 654 541l-3-1c5.949-6.724 12.046-13.102 18.71-19.12 7.708-7.003 14.97-14.475 22.29-21.88"/><path fill="#085BFB" d="m456 320 2 1-1.687 3.156L454 328.5c-.362.677-.724 1.354-1.098 2.05-3.73 7.02-7.264 14.135-10.806 21.25-1.861 3.736-3.729 7.468-5.596 11.2l-2.246 4.492L424 388c-4.06-.87-6.993-2.798-10.375-5.125l-1.91-1.297q-2.137-1.452-4.27-2.911a1465 1465 0 0 0-8.289-5.597l-6.031-4.07-2.974-1.997-2.768-1.878-2.488-1.68C383 362 383 362 382 360c3.642 1.329 6.629 2.95 9.809 5.16l2.745 1.894 2.884 2.009C405.86 374.873 414.34 380.547 423 386l.781-2.547c1.313-3.72 2.94-7.192 4.719-10.703l1.042-2.074c3.145-6.196 6.507-12.265 9.956-18.296 4.832-8.431 4.832-8.431 8.025-17.554.61-2.338 1.765-3.147 3.477-4.826.95-1.7 1.844-3.432 2.688-5.187.436-.902.873-1.803 1.324-2.731z"/><path fill="#121E55" d="m580 506 3 1-2.562 2.93c-5.696 6.53-11.323 13.08-16.688 19.886-2.199 2.744-4.514 5.369-6.844 8C546.93 549.246 537.447 561.133 528 573l-2-1c5.217-9.117 12.72-16.871 19.556-24.806A489 489 0 0 0 554.5 536.5c3.925-4.835 7.967-9.56 12.032-14.278 4.585-5.33 9.048-10.753 13.468-16.222"/><path fill="#54D9FD" d="m496 264 2 3c-5.912 12.306-12.508 24.168-19.293 36.01a1469 1469 0 0 0-5.14 9.095l-3.255 5.77-1.53 2.739-1.419 2.503-1.24 2.207C465 327 465 327 463 328c1.629-7.644 1.629-7.644 3.343-9.29 3.75-3.87 6.039-9.102 8.657-13.772l1.906-3.319c3.622-6.442 6.218-12.49 8.094-19.619a154 154 0 0 1 2.188-5.625l1.042-2.54L489 272h3l1-5 3-1z"/><path fill="#0627C4" d="m492 278 1 3c-1.11 2.2-1.11 2.2-2.75 4.688-2.747 4.35-4.626 8.441-6.25 13.312h-2l-.312 2.188c-.756 3.09-1.843 5.23-3.688 7.812h-2l-1 5h-2l-.777 2.617c-1.261 3.488-2.851 6.35-4.786 9.508-2.432 3.836-2.432 3.836-3.964 8.055-.473 1.82-.473 1.82-1.825 3.117-2.01 2.077-3.148 4.217-4.496 6.773l-1.584 2.965-3.273 6.203-1.58 2.957-1.434 2.72C448 361 448 361 446 362c1.688-6.159 4.819-11.502 7.875-17.062l1.758-3.221c4.67-8.524 9.462-16.974 14.312-25.397 3.886-6.75 7.702-13.54 11.516-20.332A639 639 0 0 1 492 278"/><path fill="#1174F8" d="M588 536c0 3.451-.51 4.046-2.562 6.688L583.8 544.8c-2.4 2.931-4.915 5.748-7.48 8.535-1.528 1.571-1.528 1.571-1.321 3.664-1.625 1.73-3.284 3.363-5 5a842 842 0 0 0-4.687 4.563l-2.325 2.253c-1.852 2.035-2.828 3.727-3.988 6.184l-5 5-.937 2c-1.305 2.456-3.131 3.684-5.282 5.387-4.78 4.329-8.702 9.811-12.156 15.238L534 605h-2c.57-3.824 2.235-5.622 4.875-8.375 3.79-4.08 7.284-8.28 10.688-12.687 3.675-4.746 7.458-9.309 11.496-13.754 2.117-2.382 4.124-4.832 6.129-7.309 4.29-5.29 8.729-10.44 13.207-15.573A563 563 0 0 0 588 536"/><path fill="#43D2FE" d="m434 379 1 2c-4.698 10.883-12.156 16.874-22 23q-2.84 1.8-5.68 3.602a1815 1815 0 0 1-15.432 9.613c-4.14 2.558-8.264 5.14-12.388 7.723l-3.844 2.402L373 429l-3-2 2.938-1.687 1.91-1.098q2.28-1.285 4.586-2.524l2.441-1.316 2.305-1.227c1.975-1.026 1.975-1.026 2.82-3.148a190 190 0 0 1 5.148-2.21c4.742-1.977 4.742-1.977 7.852-5.79a115 115 0 0 1 5.375-2.625c10.777-5.006 10.777-5.006 18.625-13.375h3l.688-2c1.718-3.927 3.98-7.413 6.312-11"/><path fill="#142158" d="M916 397c7.457.237 12.443 1.887 18 7 3.525 4.51 4.686 9.228 4.375 14.906-1.214 6.78-7.301 11.014-12.375 15.094l-1.969 1.59C922.188 437 922.188 437 919 439l-3-1 2.922-2.23 3.828-2.957 1.922-1.463c4.52-3.508 8.465-6.762 10.328-12.35.641-5.452-.357-8.781-3.379-13.207-4.025-4.452-10.016-6.112-15.621-7.793z"/><path fill="#3DDAFE" d="M276 472c1 3 1 3 0 6l4-1v2c-22.005 1.233-43.977.945-66 .563l-2.236-.04Q197.88 479.282 184 479v-1l3.27-.004q15.25-.026 30.501-.128c5.227-.034 10.454-.06 15.681-.064q7.568-.008 15.134-.077 2.886-.02 5.773-.013c2.697.005 5.391-.021 8.087-.055l2.41.027c4.18-.087 5.925-.503 9.179-3.227z"/><path fill="#095CFC" d="m533 629 2 1v24l2 1 .184 3.84.254 5.097.119 2.518c.21 4.143.5 8.24 1.005 12.357.542 4.591.091 8.617-.562 13.188h-1q-1.073-11.797-2.136-23.596-.362-4.012-.728-8.026-.524-5.77-1.042-11.542l-.332-3.618-.303-3.396-.27-2.974c-.197-2.966-.29-5.877-.189-8.848z"/><path fill="#167CFC" d="M294 481h2v2l2.125.375c3.089.672 5.946 1.427 8.875 2.625l1 3c2.634 2.104 2.634 2.104 5.813 4.125l3.207 2.133c2.735 1.797 2.735 1.797 5.117 2.234 2.7.736 3.931 2.518 5.863 4.508q2.68 1.783 5.438 3.438c4.084 2.533 7.395 4.959 10.562 8.562-4.252-1.489-7.756-3.71-11.437-6.25-6.605-4.474-13.28-8.828-20-13.125l-2.797-1.802C304.633 489.55 299.5 486.612 294 484z"/><path fill="#52DCFE" d="M480 155h1l2 12 3 1 2 14h-2v5l-3-1a1682 1682 0 0 1-1.5-9.875l-.434-2.781A103 103 0 0 1 480 155"/><path fill="#6DEAFC" d="M504 681c4.389 4.15 8.018 8.711 11.688 13.5.616.799 1.232 1.598 1.868 2.42q2.726 3.538 5.444 7.08l4.045 5.247q1.78 2.316 3.553 4.64a428 428 0 0 0 5.273 6.695l1.427 1.796q1.359 1.71 2.744 3.399c1.22 1.543 1.22 1.543 2.958 4.223l-1 3-1.437-2.312c-2.009-3.016-4.248-5.777-6.563-8.563-4.25-5.139-8.273-10.416-12.249-15.768a696 696 0 0 0-8.407-11.091l-1.818-2.35a1103 1103 0 0 0-3.513-4.508l-1.591-2.056-1.42-1.818C504 683 504 683 504 681"/><path fill="#3FC4FE" d="m341 434 1 2c-2.464 2.464-4.852 3.445-8 5-3.708 2.026-7.385 4.106-11.062 6.188l-3.1 1.75c-6.56 3.724-13.036 7.544-19.412 11.574-4.36 2.675-4.36 2.675-6.426 3.488l-3-1 3.313-1.914a7954 7954 0 0 0 31.5-18.313A1496 1496 0 0 1 341 434"/><path fill="#152155" d="m97 462-2.012 1.137C86.736 467.729 86.736 467.729 81 475c-.529 4.82-.885 9.368 1.938 13.5L85 491l1 2c-2.477-.342-3.771-.789-5.625-2.5-2.35-4.274-3.878-8.79-2.969-13.687 2.568-7.368 6.715-11.184 13.375-14.993 2.554-.944 3.704-.746 6.219.18"/><path fill="#82EEFD" d="M708 425c5.497.68 10.438 2.398 15.625 4.25l2.69.95a285 285 0 0 1 17.119 6.734c3.791 1.575 7.653 2.827 11.566 4.066v1c-6.119-.547-11.32-1.94-17.059-4.09l-2.514-.923q-2.608-.96-5.21-1.934a1212 1212 0 0 0-8.012-2.95q-2.538-.938-5.076-1.88l-2.427-.888c-5.587-2.105-5.587-2.105-6.702-4.335"/><path fill="#4ED7FE" d="m569 683 1 2a133 133 0 0 1-3.297 7.965l-1.059 2.391a1211 1211 0 0 1-2.24 5.01c-1.146 2.553-2.276 5.111-3.404 7.671q-1.084 2.433-2.172 4.865l-1.023 2.32-.98 2.164-.85 1.9c-1.087 1.91-2.363 3.232-3.975 4.714.596-3.413 1.458-6.407 2.82-9.59l1.114-2.608 1.191-2.74 1.215-2.813c8.953-20.542 8.953-20.542 11.66-23.249"/><path fill="#1E95FE" d="m621 566 1 2c-1.082 2.406-1.082 2.406-2.812 5.5l-1.938 3.496-1.082 1.925c-1.725 3.071-3.432 6.152-5.141 9.231q-1.321 2.379-2.65 4.754l-1.24 2.223-1.103 1.97A166 166 0 0 0 603 603l-4 8h-2c1.645-5.932 4.592-11.03 7.563-16.375l1.612-2.927q2.404-4.352 4.825-8.698l1.427-2.57q1.875-3.375 3.76-6.742l1.134-2.027c2.558-4.54 2.558-4.54 3.679-5.661"/><path fill="#4FD5FE" d="M286 480q3.223 1.176 6.438 2.375l3.62 1.336C299 485 299 485 300 487l-5-1c1.412 3.472 2.877 4.86 6.098 6.727l2.427 1.437 2.538 1.461q2.49 1.45 4.972 2.914l2.23 1.288C315 501 315 501 316 503c-5.065-1.746-9.454-4.534-14-7.312l-2.406-1.436c-4.452-2.712-8.087-5.393-11.594-9.252l-2-2z"/><path fill="#112267" d="M255.438 388.313 257 389l-1 3c-1.7.566-1.7.566-3.91.895-5.613 1.072-10.4 3.333-15.528 5.793a712 712 0 0 1-5.308 2.511l-2.334 1.12L227 403l-2-1c2.394-2.72 4.857-4.043 8.125-5.562 3.637-1.48 3.637-1.48 5.875-4.438l3.125-.437c3.15-.458 4.82-.879 7.563-2.188C253 388 253 388 255.438 388.313"/><path fill="#0F1A51" d="M610 826h1c-.874 7.425-3.284 13.901-5.875 20.875l-1.355 3.781-1.325 3.586-1.202 3.277C600 860 600 860 597 861c2.169-7.67 4.806-15.11 7.625-22.562l1.234-3.307c3.011-8.001 3.011-8.001 4.141-9.131"/><path fill="#111B51" d="M596 863h1c-.45 7.747-3.204 14.343-6.062 21.5l-1.432 3.648Q587.765 892.58 586 897h-3q2.53-7.024 5.072-14.044l1.726-4.781q1.236-3.43 2.48-6.859l.78-2.171c1.828-5.031 1.828-5.031 2.942-6.145"/><path fill="#101E5A" d="M614 281c3.733 1.244 4.171 2.408 6.215 5.7l1.83 2.915 1.893 3.072q1.856 2.976 3.714 5.95l1.75 2.837a106 106 0 0 0 4.102 5.983C635 310 635 310 634.594 312.159L634 314l-1.19-1.877q-2.716-4.28-5.435-8.56l-1.871-2.952c-3.398-5.347-6.842-10.645-10.45-15.853C614 283 614 283 614 281"/><path fill="#072DAF" d="M664 532c-1.48 3.544-3.422 5.503-6.312 8-4.76 4.172-9.42 8.432-14.045 12.75-3.454 3.207-6.998 6.26-10.643 9.25 0-3 0-3 1.434-4.698l2.004-1.849 2.214-2.062L641 551.25l2.254-2.094a508 508 0 0 1 13.08-11.677c1.403-1.245 2.732-2.573 4.041-3.917C662 532 662 532 664 532"/><path fill="#65E2FD" d="m594 381 2.273.621c5.953 1.567 11.614 2.742 17.766 3.07C616 385 616 385 618 387l-2 3 5 1c-3.647 1.332-5.638.658-9.168-.8l-2.955-1.214-3.064-1.298-3.1-1.264c-7.577-3.153-7.577-3.153-8.713-5.424"/><path fill="#1082F5" d="M423 235c1.292 3.876.178 6.25-1.125 9.938l-.697 2.028c-1.778 5.092-3.781 10.07-5.908 15.026-2.23 5.281-4.239 10.648-6.27 16.008-1.02-3.13-.992-4.855.156-7.927l.84-2.294.934-2.447c.31-.835.62-1.67.938-2.532a996 996 0 0 1 1.983-5.282c1.023-2.702 2.03-5.41 3.036-8.118q.957-2.565 1.918-5.13l.922-2.466c2.155-5.686 2.155-5.686 3.273-6.804"/><path fill="#041DBE" d="m468 321 1 2c-.96 2.023-.96 2.023-2.375 4.375-1.938 3.205-1.938 3.205-3.102 6.727-.523 1.898-.523 1.898-1.878 3.2-2.01 2.074-3.146 4.214-4.493 6.768l-1.584 2.965-3.273 6.203-1.58 2.957-1.434 2.72C448 361 448 361 446 362c1.262-4.065 2.767-7.709 4.793-11.45l1.662-3.071 1.733-3.166 1.673-3.108C459.63 334.28 463.682 327.596 468 321"/><path fill="#15225D" d="M494 862c3.17 1.337 4.64 2.491 6.324 5.484l1.178 2.086 1.185 2.18 1.221 2.133c2.225 4.01 3.792 7.452 4.092 12.117l-1 2h-3l.125-3.25c-.154-4.622-.91-6.534-4.125-9.75-1.334-2.53-2.55-5.106-3.781-7.687-1.13-2.422-1.13-2.422-3.219-4.313z"/><path fill="#45CCFE" d="M585 648h2c-.696 3.31-1.904 6.129-3.363 9.176l-1.44 3.01-1.51 3.126-1.474 3.092c-2.556 5.322-5.199 10.52-8.213 15.596-.85-2.388-1.143-3.6-.275-6.024l1.19-2.136c.428-.79.858-1.578 1.3-2.392l1.41-2.51q1.395-2.557 2.781-5.118l1.36-2.499c2.306-4.338 4.305-8.803 6.234-13.321"/><path fill="#0E1A52" d="m606 477 1 2-2.05 1.953c-4.39 4.387-8.153 9.334-12.042 14.16l-1.826 2.246-1.65 2.046C588 501 588 501 586 502c.577-3.984 2.57-6.219 5.125-9.25l2.453-2.918L596 487l2.047-2.426c2.561-2.994 4.651-5.373 7.953-7.574"/><path fill="#2298FF" d="m624 561 5 3c-1.836 4.954-4.247 9.604-6.625 14.313l-1.273 2.533A3951 3951 0 0 1 618 587l-2-2 1.82-3.324q1.155-2.181 2.305-4.364l1.207-2.185c2.397-4.287 2.397-4.287 1.785-8.959L622 564z"/><path fill="#65E4FE" d="m287 476 2 1-2 3c.245 3.793 2.272 5.536 5 8-2.478-.928-4.76-1.85-7.008-3.254-8.33-5.149-17.497-4.639-26.992-4.746v-1l2.34.048c3.49.062 6.981.101 10.473.14l3.681.076 3.526.029 3.253.048c2.77-.102 2.77-.102 4.6-1.86z"/><path fill="#122262" d="M872 384h10v2l2.875.313c12.991 1.882 12.991 1.882 17.125 6.687-6.578-.662-12.646-2.59-18.937-4.562l-3.229-.999A2308 2308 0 0 1 872 385z"/><path fill="#0F1C59" d="M444 109c1 2 1 2 .594 3.8l-.739 2.157-.802 2.373-.865 2.483-.83 2.447c-3.946 11.553-3.946 11.553-7.358 15.74-.64-6.159 1.656-11.138 3.875-16.75l1.105-2.902c2.743-7.07 2.743-7.07 5.02-9.348"/><path fill="#58E0FD" d="m482 293 1 2c-1.2 2.61-1.2 2.61-3.043 5.89l-.984 1.765a711 711 0 0 1-2.087 3.702 913 913 0 0 0-3.154 5.616c-3.071 5.474-6.2 10.837-9.732 16.027-1-2-1-2-.25-4.937C465 320 465 320 466.384 318.639c2.068-2.098 3.288-4.353 4.718-6.928l1.734-3.102 1.789-3.234q1.767-3.177 3.54-6.352l1.576-2.846C481 294 481 294 482 293"/><path fill="#48D2FE" d="M576 651c1.23 3.69.662 4.337-.984 7.746l-1.336 2.787-1.43 2.904-1.383 2.893c-2.025 4.182-3.972 8.015-6.867 11.67-1-3-1-3-.028-5.528l1.52-2.98 1.637-3.238 1.746-3.379 1.723-3.402c4.22-8.291 4.22-8.291 5.402-9.473"/><path fill="#101B4F" d="m488 414 1 3c-1.625 2.383-1.625 2.383-4 5.125l-2.496 2.934L480 428a492 492 0 0 0-4.062 5.188l-1.723 2.23L473 437l-3-1 2.16-2.527c5.434-6.378 10.78-12.79 15.84-19.473"/><path fill="#3BBFFD" d="M480 288h3c-.454 5.971-3.126 10.31-6.062 15.375l-1.432 2.52q-1.741 3.06-3.506 6.105c-1.097-3.29-.8-4.713 0-8h2l.813-2.125C476 299 476 299 477.563 296c1.314-2.744 1.997-5.01 2.437-8"/><path fill="#0F1A52" d="M664 679h1c-.531 5.972-1.846 10.946-4.062 16.5l-.854 2.203A756 756 0 0 1 658 703h-2c1.49-8.492 4.686-16.09 8-24"/><path fill="#111F5D" d="M363 637c5.507 2.142 8.33 6.983 11 12 .937 2.69 1.488 5.185 2 8-2.904-1.936-4.646-3.287-5.375-6.812-1.549-5.422-5.168-8.969-9.625-12.188z"/><path fill="#3DC5FE" d="M276 472c1 3 1 3 0 6l4-1v2l-32 1v-1l2.032-.104c3.054-.17 6.104-.377 9.155-.584l3.198-.162c6.537-.325 6.537-.325 11.853-3.732z"/><path fill="#0F194D" d="M656 704c-.446 7.59-3.115 14.016-6 21h-2c.65-4.103 1.422-8.144 2.375-12.187.235-1.025.47-2.05.71-3.106.784-2.318 1.956-5.707 4.915-5.707"/><path fill="#42D0FD" d="m461 330 1 2c-1.048 2.414-1.048 2.414-2.676 5.41l-1.76 3.248-1.877 3.404-1.841 3.417c-4.581 8.389-4.581 8.389-6.846 9.521 1.37-4.56 3.236-8.477 5.563-12.625 1.957-3.493 3.515-6.497 4.437-10.375 2.063-2.25 2.063-2.25 4-4"/><path fill="#112265" d="M327 357c-3 2-3 2-6 2v2a742 742 0 0 1-4.812 2l-2.708 1.125C311 365 311 365 308 365v-2a741 741 0 0 1 7.25-3.562l2.066-1.038c3.706-1.78 5.763-2.706 9.684-1.4"/><path fill="#0E1951" d="M506 393c6.929 3.19 12.812 8.478 18 14-4.144-.59-6.834-2.842-10.125-5.312l-3.195-2.364c-2.42-2.099-3.586-3.374-4.68-6.324"/><path fill="#121A49" d="M572 927h1c-.269 6.446-2.646 10.288-7 15l-3 2-3-1 2.625-1.812c4.553-3.73 6.813-9.001 9.375-14.188"/><path fill="#192863" d="m538 556 1 3c-.896 1.626-.896 1.626-2.309 3.355l-1.513 1.885-1.615 1.947-1.604 1.983A677 677 0 0 1 528 573l-2-1c2.224-3.937 4.799-7.337 7.688-10.812l2.449-2.958z"/><path fill="#146AF6" d="M668 523c0 3 0 3-2.336 5.34l-3.039 2.597c-3.932 3.207-3.932 3.207-6.727 7.317C655 540 655 540 652.875 540.75L651 541c4.78-6.807 10.026-13.35 17-18"/><path fill="#101D56" d="m798 527 1 3a824 824 0 0 1-7.312 5.563l-2.092 1.615-2.022 1.513-1.856 1.413L784 541l-3-1 8.027-6.182A720 720 0 0 1 798 527"/><path fill="#054BF8" d="M539 693c2.344 3.662 2.075 6.74 2 11l.688 2.688C542 709 542 709 540.563 711.313L539 713c-2.025-13.924-2.025-13.924 0-20"/><path fill="#4AD0FE" d="M355 437c-3.559 2.967-7.198 5.459-11.187 7.813l-3.168 1.894L338 448l-2-1 1.496-1.023 1.942-1.352 1.933-1.336c1.766-1.21 1.766-1.21 2.629-3.289 3.813-2.253 6.556-3.392 11-3"/><path fill="#4CDCFE" d="M852 423c-2.825 2.825-6.016 2.962-9.812 3.625l-2.159.406c-3.716.674-7.252 1.132-11.029.969 5.187-5.965 15.65-5.193 23-5"/><path fill="#58DAFD" d="m496 264 2 3q-1.428 2.974-2.875 5.938l-1.617 3.34C492 279 492 279 490 280a496 496 0 0 1 1.313-6.437l.738-3.622L493 267l3-1z"/><path fill="#1185F8" d="M437 197c1.408 4.223-.261 7.102-1.812 11.063l-.83 2.22c-2.085 5.444-2.085 5.444-4.358 7.717.447-6.406 2.384-16.384 7-21"/><path fill="#0E1950" d="M499 551c4.666.48 6.914 2.291 10.313 5.438l2.675 2.433C514 561 514 561 514 563c-3.736-1.628-6.617-3.98-9.75-6.562l-2.984-2.442L499 552z"/><path fill="#0524CC" d="M435 380c1 3 1 3 .031 5.27-3.424 5.687-6.74 9.708-12.031 13.73v-3a216 216 0 0 1 3.422-3.262c3.44-3.79 5.928-8.377 8.578-12.738"/><path fill="#26A4FE" d="M607 591c1 3 1 3-.062 5.5A281 281 0 0 1 605 600l-3.187 5.875A4175 4175 0 0 1 599 611h-2c1.437-4.914 3.542-9.002 6.125-13.375l1.129-1.941Q605.62 593.338 607 591"/><path fill="#0D1952" d="M447 509c3.876.596 6.172 2.443 9.188 4.875l2.667 2.117C461 518 461 518 462 521c-3.736-1.628-6.617-3.98-9.75-6.562l-2.984-2.442L447 510z"/><path fill="#0E1E5F" d="m437 475 1 3-1.68 1.863-2.195 2.45-2.18 2.425c-2.061 2.304-2.061 2.304-3.945 5.262h-3c0-2 0-2 2.063-4.125.448-.43.897-.859 1.359-1.3 3.035-3.029 5.782-6.327 8.578-9.575"/><path fill="#4AD0FF" d="M313 453q-3.624 2.19-7.25 4.375l-2.066 1.25-3.853 2.322L298 462l-2.042 1.198C294 464 294 464 291 463c3.094-1.87 6.202-3.719 9.313-5.562.88-.534 1.762-1.067 2.67-1.616l2.568-1.513 2.364-1.413C310 452 310 452 313 453"/><path fill="#0F1B57" d="M376 294c1 2 1 2-.215 5.695a465 465 0 0 1-1.723 4.43l-.88 2.285Q372.1 309.208 371 312h-1c-.623-5.914 1.427-10.78 4-16z"/><path fill="#121846" d="m543 941 2.938.938c4.299 1.242 8.615 1.679 13.062 2.062v2c-5.57 1.277-10.005 1.07-15-2z"/><path fill="#0D1647" d="M683 627h1c-.455 6.255-1.829 11.532-5 17l-2 1c.653-3.733 1.682-7.136 3-10.687l1.063-2.887C682 629 682 629 683 627"/><path fill="#0F56E6" d="M896 414q2.44.425 4.875.875l2.742.492C906 416 906 416 908 418l-8 6-2-1 5-4-7-4z"/><path fill="#101A4E" d="M916 397c6.945.177 11.423 1.882 17 6l-1 3-1.469-.988c-4.71-3.071-9.206-5.205-14.531-7.012z"/><path fill="#101F61" d="M363 329c1.184 3.552.695 4.698-.437 8.188l-.872 2.73L361 342l-5 1q1.18-2.94 2.375-5.875l1.336-3.305C361 331 361 331 363 329"/><path fill="#0E4FDB" d="m551 900 1 4 4 1c-.812 3.438-.812 3.438-2 7l-3 1z"/><path fill="#121D54" d="M619 801h1c-.466 6.401-2.147 11.268-5 17h-2c1.662-5.857 3.47-11.459 6-17"/><path fill="#0E1646" d="M375 653c3.18 2.924 5.254 5.834 7.313 9.625l1.613 2.914L385 668l-1 2c-2.994-2.58-4.456-5.543-6.187-9.062l-1.606-3.223C375 655 375 655 375 653"/><path fill="#0E1B56" d="M484 539c4.398.508 6.576 1.969 9.813 4.938l2.394 2.152C498 548 498 548 498 550c-3.5-1.562-6.272-3.663-9.25-6.062l-2.703-2.16L484 540z"/><path fill="#42C7FE" d="M489 272h3c-.114 1.46-.242 2.917-.375 4.375-.07.812-.14 1.624-.21 2.46C491 281 491 281 489 283l-3-1z"/><path fill="#0C1446" d="M637 753h1c-.498 5.846-2.086 10.875-5 16l-2 1c1.662-5.857 3.47-11.459 6-17"/><path fill="#0F1C57" d="M463 522c4.457.499 6.577 2.02 9.813 5.063l2.394 2.222L477 531l-1 2q-3.255-2.463-6.5-4.937c-.62-.47-1.24-.938-1.879-1.42A238 238 0 0 1 463 523z"/><path fill="#02156B" d="m767 524 2 1c-4.75 4-4.75 4-7 4l-1 3c-3.57 2.222-7.21 4.18-11 6 3.532-3.689 7.185-6.774 11.313-9.812l1.666-1.233q2.007-1.482 4.021-2.955"/><path fill="#142059" d="M448 782c3.698 1.233 3.935 2.2 5.688 5.563l1.324 2.503L456 792l-2 2-1.875-2.437c-1.867-2.602-1.867-2.602-4.125-3.563z"/><path fill="#152362" d="M292 602c5.131.513 9.748 2.057 14 5l1 3c-5.48-1.545-10.114-4.155-15-7z"/><path fill="#0F194E" d="M202 554c5.48 1.545 10.114 4.155 15 7-2.577.965-3.681 1.124-6.29.11-.77-.45-1.54-.898-2.335-1.36l-2.352-1.328C204 557 204 557 202 554"/><path fill="#81EEFE" d="m350 440 2 1-6.312 3.875-1.803 1.105A253 253 0 0 0 336 451l-3-1c1.357-2.714 3.176-2.983 5.887-4.066 3.214-1.42 6.184-3.24 9.195-5.043z"/><path fill="#192457" d="M933 404c3.615 4.314 5.144 7.048 5.063 12.688l-.028 2.449L938 421h-2l-.148-1.828-.227-2.422c-.07-.789-.14-1.578-.21-2.39-.3-2.38-.3-2.38-1.454-4.407C933 408 933 408 933 404"/><path fill="#142262" d="M392 682c2.333 2.121 3.915 4.016 5 7-.375 2.25-.375 2.25-1 4h-3q-.54-2.466-1.062-4.937l-.598-2.778L391 683zm1 6 1 2Z"/><path fill="#142364" d="M215 562c4.551.542 8.064 1.62 12 4l1 3-2.875-1.062c-2.996-1.288-2.996-1.288-5.125.062l-2-1v-3l-3-1z"/><path fill="#0E1A58" d="M592 247c3.579 1.193 4.181 2.245 6.25 5.313l1.64 2.363c1.11 2.324 1.11 2.324.782 4.617L600 261a1357 1357 0 0 1-4-5.875l-2.25-3.305C592 249 592 249 592 247"/><path fill="#0541F3" d="M546 708c1.305 3.916.322 5.039-1.437 8.688l-1.434 3.011L542 722c-2-2-2-2-2.195-4.383l.07-2.742.055-2.758L540 710h1v6h2l.938-2.875C545 710 545 710 546 708"/><path fill="#101B53" d="M227 567c4.827 1.413 8.716 3.43 13 6v2c-4.229-1.309-8.164-2.77-12-5z"/><path fill="#1986FE" d="m624 561 5 3-2 5h-3c-1.125-2.312-1.125-2.312-2-5z"/><path fill="#111F58" d="M895 455c-1.412 3.359-3.034 5.133-5.937 7.313l-2.09 1.613L885 465l-3-1q2.682-2.258 5.375-4.5l3.023-2.531C893 455 893 455 895 455"/><path fill="#0F1A51" d="M886 388c6.259-.533 10.451 1.182 16 4-3.882 1.498-6.434.431-10.25-.937l-3.266-1.153L886 389z"/><path fill="#0E1A56" d="M402 223c1.328 3.985.232 5.4-1.437 9.188l-1.434 3.292L398 238h-1c.506-4.957 1.266-11.266 5-15"/><path fill="#0D1851" d="M670 663h1c-.463 5.368-1.137 9.305-4 14l-2 1q.68-2.626 1.375-5.25l.773-2.953A34.6 34.6 0 0 1 670 663"/><path fill="#34B6FD" d="M464 320c1.6 4.002.293 7.046-1 11h-2l-2 2c-.401-3.51-.207-4.72 1.938-7.625L463 323z"/><path fill="#0D194F" d="M456 452h2l-1 4h-2l-.812 1.813c-1.173 2.16-2.382 3.545-4.188 5.187l-2-1a797 797 0 0 1 3.875-5l2.18-2.812z"/><path fill="#0E1849" d="m468 438 1 3c-1.652 2.48-1.652 2.48-3.937 5.188l-2.278 2.73L461 451l-3-1z"/><path fill="#46CFFE" d="M612 384c4.548-.178 7.88.002 12 2l-4 1v3h-4v-4z"/><path fill="#101E61" d="M355 344a763 763 0 0 1-5.875 3.063l-3.305 1.722L343 350l-2-1c1.322-2.645 2.645-2.978 5.313-4.187l2.363-1.106c2.58-.785 3.82-.606 6.324.293"/><path fill="#152569" d="M265 588c6.4.492 6.4.492 9.438 3.063L276 593l-4 1v-2h-4v-2l-3-1z"/><path fill="#2BAAFE" d="m426 577 5 1 1 4h2c1.625 2.5 1.625 2.5 3 5l-4-1v-3l-3-1a95 95 0 0 1-4-5"/><path fill="#0C2376" d="m428 149 1 2h2c.37 4.554.37 4.554-1.5 6.813L428 159c-1.37-2.74-1.126-4.97-1-8z"/><path fill="#0B5EED" d="M470 106h2c.688 3.313.688 3.313 1 7-1.437 1.938-1.437 1.938-3 3-1.231-3.694-.644-6.206 0-10"/><path fill="#142365" d="m471.75 74.438 2.422.308L476 75c-2.607 2.607-4.473 2.24-8.027 2.266C466 77 466 77 463 75c3.122-.967 5.52-.99 8.75-.562"/><path fill="#182661" d="M371 646c3.81 2.77 4.068 6.629 5 11-3.498-2.332-4.678-4.033-6-8z"/><path fill="#29A4FE" d="M407 563c5.198 1.361 8.095 3.467 12 7l-1 2a1772 1772 0 0 1-5.5-3.937l-3.094-2.215L407 564z"/><path fill="#0F1A4C" d="m504 395 1 3c-1.215 2.043-1.215 2.043-2.937 4.188l-1.715 2.167L499 406l-3-1z"/><path fill="#0E1953" d="M727 342c7.429-.143 7.429-.143 11 1v2l2 1c-4.571-.549-8.674-1.417-13-3z"/><path fill="#0E1954" d="M381 280c1.236 3.708.568 4.675-.937 8.188l-1.153 2.73L378 293h-1c-.348-4.877.55-7.784 3-12z"/><path fill="#0E1957" d="M411 199c1.214 3.642.667 4.332-.937 7.688l-1.153 2.449L408 211h-1c.468-4.776 1.243-8.045 4-12"/><path fill="#17245D" d="M526 917c2.452.98 3.78 1.687 5.313 3.875.8 2.475.55 3.708-.313 6.125-3-2-3-2-3.625-4.437L527 920z"/><path fill="#0C1954" d="M515 564c4.398.507 6.87 3.083 10 6v2c-3.948-1.67-6.818-4.18-10-7z"/><path fill="#101949" d="m79 482 2 3 2.063 3.063C85 491 85 491 86 493c-2.624-.362-3.82-.827-5.75-2.687-1.577-2.917-1.473-5.046-1.25-8.313"/><path fill="#14245F" d="m908 444 3 1-9 7-2-2a283 283 0 0 1 3.813-3.062l2.144-1.723z"/><path fill="#101A4B" d="m935 419 2 4-5 6-3-1 3.809-4.395c1.4-1.712 1.4-1.712 2.191-4.605"/><path fill="#53DAFE" d="m378 422 4 1-10 6-2-2q2.685-1.514 5.371-3.027c1.608-.87 1.608-.87 2.629-1.973"/><path fill="#76EEFC" d="M549 329c4.413 3.152 7.008 6.555 10 11l-1 2q-2.258-2.681-4.5-5.375l-2.531-3.023C549 331 549 331 549 329"/><path fill="#0E1545" d="M581 903h1c-.492 7.385-.492 7.385-3.062 10.5L577 915q.716-2.438 1.438-4.875l.808-2.742C580 905 580 905 581 903"/><path fill="#0E194D" d="m446 464 1 3c-1.145 1.824-1.145 1.824-2.812 3.688l-1.645 1.886C441 474 441 474 439 474c1.668-3.941 4.227-6.79 7-10"/><path fill="#72E6FE" d="m724 430 10 3-4 2c-3.75-1.375-3.75-1.375-7-3z"/><path fill="#2FB1FE" d="m412 398 4 2-8 5c1.074-2.915 1.778-4.778 4-7"/><path fill="#111A4D" d="M474 76c6.4.492 6.4.492 9.438 3.063L485 81l-1 2a983 983 0 0 1-3.875-2.375c-.72-.44-1.439-.882-2.18-1.336C476 78 476 78 474 76"/><path fill="#0D133F" d="M477 830c2.615 2.366 4.39 4.86 6 8l-1 2c-3.672-3.08-4.568-5.248-5-10"/><path fill="#10184C" d="M643 736h1c.196 4.219-.198 7.17-2 11h-2c.551-3.95 1.39-7.35 3-11"/><path fill="#132160" d="M751.133 564.426 753 565a617 617 0 0 1-3.875 3l-2.18 1.688C745 571 745 571 743 571c1.54-3.72 3.65-7.47 8.133-6.574"/><path fill="#0C1650" d="M628 303c4.065 1.355 4.973 3.308 7 7-.39 2.2-.39 2.2-1 4a783 783 0 0 1-3-4.375l-1.687-2.46C628 305 628 305 628 303"/><path fill="#0F1642" d="M522 908c2.615 2.366 4.39 4.86 6 8l-1 2c-3.672-3.08-4.568-5.248-5-10"/><path fill="#152157" d="M516 900c2.452.98 3.78 1.687 5.313 3.875.808 2.498.405 3.654-.313 6.125q-1.257-1.932-2.5-3.875l-1.406-2.18C516 902 516 902 516 900"/><path fill="#0E1648" d="M587 888c1.192 4.766.342 5.879-2 10l-2-1z"/><path fill="#0F1748" d="M405 705c2.615 2.366 4.39 4.86 6 8l-1 2c-2.025-1.933-3.421-3.632-5-6z"/><path fill="#0C1649" d="m560 532 1 2c-2.578 2.648-4.916 4.944-8 7 .599-3.354 1.724-5.461 4-8z"/><path fill="#0D184F" d="M564 439c3.817 1.555 6.192 4.036 9 7-3.631-.303-4.781-.764-7.312-3.5C564 440 564 440 564 439"/><path fill="#0B123C" d="M455 792c2.615 2.366 4.39 4.86 6 8l-1 2c-2.025-1.933-3.421-3.632-5-6z"/><path fill="#101E58" d="M156 435q-1.934 1.007-3.875 2l-2.18 1.125C148 439 148 439 146 439v-2c5.893-3.348 5.893-3.348 10-2"/><path fill="#162461" d="M536 418c4.248.472 6.2 2.967 9 6-4.412 0-5.784-2.07-9-5z"/><path fill="#142364" d="M571 213c3.08 2.773 4.688 5.063 6 9-3.161-1.37-3.993-1.99-6-5z"/><path fill="#0E153F" d="M507 882c2.025 1.933 3.421 3.632 5 6v3h-2c-3-5.625-3-5.625-3-9"/><path fill="#0E2167" d="m626 785-1 8-1-2h-2c.375-2.437.375-2.437 1-5 2-1 2-1 3-1"/><path fill="#0F1748" d="M445 775c2.799 2.528 4.458 4.204 5 8-3-1-3-1-5-3l-1-2z"/><path fill="#116FFC" d="M539 693c1.32 2.176 2.071 3.431 1.75 6-.782 2.085-1.742 4.016-2.75 6a560 560 0 0 1-.062-4.312l-.036-2.426C538 696 538 696 539 693"/><path fill="#0E184F" d="M532 565c0 3.908-1.506 5.116-4 8l-2-1c1.804-3.265 2.834-4.89 6-7"/><path fill="#0E1A51" d="M222.203 403.379 224 404q-1.931 1.043-3.875 2.063l-2.18 1.16L216 408l-2-1c5.458-4.093 5.458-4.093 8.203-3.621"/><path fill="#0D1A56" d="M292.203 371.379 294 372q-1.931 1.043-3.875 2.063l-2.18 1.16L286 376l-2-1c5.458-4.093 5.458-4.093 8.203-3.621"/><path fill="#101C55" d="m807 365 10 1v2c-7.75-.75-7.75-.75-10-3"/><path fill="#0D184F" d="M555 190c3.42 1.14 4.243 1.925 6 5-.422 2.137-.422 2.137-1 4a466 466 0 0 1-2.5-3.375l-1.406-1.898C555 192 555 192 555 190"/><path fill="#101E5F" d="m681 636 1 2c-2.455 5.727-2.455 5.727-5 7 .523-2.763 1.109-5.326 2-8z"/><path fill="#0E1546" d="M321 616c3.912 1.156 6.875 2.355 10 5-2.187.313-2.187.313-5 0-2.812-2.5-2.812-2.5-5-5"/><path fill="#172666" d="m138 522 6 1 1 3-8-1z"/><path fill="#091343" d="m437 475 1 3-5 5-2-1z"/><path fill="#2FB1FF" d="m272 476 3 2h-9l-1-2c3.01-.934 3.867-1.044 7 0"/><path fill="#0E1B51" d="M870 474c-1.37 3.161-1.99 3.993-5 6l-3-1c5.75-5 5.75-5 8-5"/><path fill="#10205F" d="M141 442c-4.43 3.077-4.43 3.077-7.312 2.688L132 444c4.862-3.241 4.862-3.241 9-2"/><path fill="#0D1A57" d="M235 399q-1.931 1.043-3.875 2.063l-2.18 1.16L227 403l-2-1c3.181-3.484 5.432-4.418 10-3"/><path fill="#062AC3" d="M568 355c2.648 2.578 4.944 4.916 7 8l-2 1c-2.5-2.25-2.5-2.25-5-5z"/><path fill="#0D1D65" d="m367 315 1 2h2l-1 4h-2l-1 2z"/><path fill="#0E164A" d="M616 809h1l-1 8-3 1z"/><path fill="#101D5A" d="M637 753h1c-.75 6.625-.75 6.625-3 10q.212-2.22.438-4.437c.08-.824.162-1.648.246-2.497C636 754 636 754 637 753"/><path fill="#0D1F67" d="m656 704-1 8-3-1c0-4 0-4 1.438-5.75C655 704 655 704 656 704"/><path fill="#12205B" d="M499 551c3.242.35 4.615.562 6.813 3.063L507 556c-3.796-.542-5.472-2.201-8-5"/><path fill="#48D1FE" d="M589 379h8l1 3c-5.538.37-5.538.37-7.875-1.5z"/><path fill="#0E1B59" d="M316 362c-4.625 3-4.625 3-8 3v-2c3.067-1.862 4.597-2.215 8-1"/><path fill="#091349" d="M741 346c6.523-.37 6.523-.37 8.938 1.5L751 349c-7.75-.75-7.75-.75-10-3"/><path fill="#0C1652" d="M676 327h7v2l2 1c-6.152-.586-6.152-.586-8-1z"/><path fill="#0A1346" d="M665 324c6.523-.37 6.523-.37 8.938 1.5L675 327c-7.75-.75-7.75-.75-10-3"/><path fill="#0C164A" d="m452 88 1 2a136 136 0 0 1-3 7h-1c.75-6.75.75-6.75 3-9"/><path fill="#173389" d="M883 384h5l1 2-6-1z"/><path fill="#182F81" d="m544 426 2 1-1 3z"/><path fill="#1A2E7B" d="M376 664h3l-1 2h-2z"/><path fill="#1A2E7E" d="m368 648 2 1-2 3z"/><path fill="#1B307E" d="m170 541 3 1-2 2z"/><path fill="#163088" d="m430 490 2 1-1 2-2-2z"/><path fill="#16348B" d="m308 360 4 1-4 1z"/><path fill="#1A2C76" d="m496 872 3 2h-3z"/><path fill="#1A2D78" d="m488 856 2 2-2 1z"/><path fill="#1A2D79" d="m432 760 2 1-2 2z"/><path fill="#192D7A" d="m424 744 2 3h-2z"/><path fill="#192D7B" d="m416 730 2 1-1 2z"/><path fill="#1A2E7B" d="m400 704 2 1-2 2z"/><path fill="#1B2E7B" d="M307 614h2v2h-2z"/><path fill="#163186" d="m530 561 2 2-3-1z"/><path fill="#193386" d="m536 552 2 1-2 2z"/><path fill="#1A3080" d="m186 549 3 1h-3z"/><path fill="#1B307C" d="m104 506 3 2h-3z"/><path fill="#1D317A" d="m89 498 2 2-3-1z"/><path fill="#19338A" d="m265 380 2 1h-3z"/><path fill="#1C368F" d="m352 337 2 2-2 1z"/><path fill="#1A348C" d="m689 328 4 1Z"/><path fill="#1B348A" d="m408 194 2 1-1 2z"/><path fill="#1A3488" d="M409 192h2l-1 3z"/><path fill="#203784" d="m440 105 2 3h-2z"/><path fill="#192D7C" d="M425 749h2l-1 2z"/><path fill="#192E79" d="m408 720 2 1-2 1z"/><path fill="#1A2F7D" d="m369 652 1 2-2-1z"/><path fill="#1B3180" d="m153 532 1 2-2-1z"/><path fill="#193186" d="m468 520 3 1Z"/><path fill="#1B3283" d="M890 461h2l-1 2z"/><path fill="#172F81" d="m555 438 2 2h-2z"/><path fill="#173189" d="m204 408 3 1Z"/><path fill="#17318B" d="M220 400h2l-1 2z"/><path fill="#1A348B" d="m859 376 2 2h-2z"/><path fill="#1D378C" d="m759 346 1 2-2-1z"/><path fill="#1B378D" d="m719 336 3 1Z"/><path fill="#173387" d="M606 264h2l-1 2z"/><path fill="#1C3687" d="m424 146 2 1-2 1z"/></svg>